%TF.GenerationSoftware,KiCad,Pcbnew,(5.1.10)-1*%
%TF.CreationDate,2021-09-02T23:13:25-06:00*%
%TF.ProjectId,MX43,4d583433-2e6b-4696-9361-645f70636258,rev?*%
%TF.SameCoordinates,Original*%
%TF.FileFunction,Soldermask,Top*%
%TF.FilePolarity,Negative*%
%FSLAX46Y46*%
G04 Gerber Fmt 4.6, Leading zero omitted, Abs format (unit mm)*
G04 Created by KiCad (PCBNEW (5.1.10)-1) date 2021-09-02 23:13:25*
%MOMM*%
%LPD*%
G01*
G04 APERTURE LIST*
%ADD10C,3.050000*%
%ADD11C,4.000000*%
%ADD12C,3.000000*%
%ADD13C,1.750000*%
%ADD14C,2.200000*%
G04 APERTURE END LIST*
D10*
%TO.C,U39*%
X170434000Y-109840000D03*
D11*
X170434000Y-125080000D03*
X194310000Y-125080000D03*
D10*
X194310000Y-109840000D03*
D12*
X179832000Y-121920000D03*
X186182000Y-119380000D03*
D11*
X182372000Y-116840000D03*
%TD*%
D12*
%TO.C,U18*%
X158496000Y-83820000D03*
X164846000Y-81280000D03*
D13*
X155956000Y-78740000D03*
X166116000Y-78740000D03*
D11*
X161036000Y-78740000D03*
%TD*%
D12*
%TO.C,U13*%
X60833000Y-83820000D03*
X67183000Y-81280000D03*
D13*
X58293000Y-78740000D03*
X68453000Y-78740000D03*
D11*
X63373000Y-78740000D03*
%TD*%
D12*
%TO.C,U20*%
X196596000Y-83820000D03*
X202946000Y-81280000D03*
D13*
X194056000Y-78740000D03*
X204216000Y-78740000D03*
D11*
X199136000Y-78740000D03*
%TD*%
D12*
%TO.C,U21*%
X215646000Y-83820000D03*
X221996000Y-81280000D03*
D13*
X213106000Y-78740000D03*
X223266000Y-78740000D03*
D11*
X218186000Y-78740000D03*
%TD*%
D12*
%TO.C,U34*%
X267970000Y-102870000D03*
X274320000Y-100330000D03*
D13*
X265430000Y-97790000D03*
X275590000Y-97790000D03*
D11*
X270510000Y-97790000D03*
%TD*%
D12*
%TO.C,U43*%
X267970000Y-121920000D03*
X274320000Y-119380000D03*
D13*
X265430000Y-116840000D03*
X275590000Y-116840000D03*
D11*
X270510000Y-116840000D03*
%TD*%
D12*
%TO.C,U40*%
X210820000Y-121920000D03*
X217170000Y-119380000D03*
D13*
X208280000Y-116840000D03*
X218440000Y-116840000D03*
D11*
X213360000Y-116840000D03*
%TD*%
D10*
%TO.C,U38*%
X122809000Y-109840000D03*
D11*
X122809000Y-125080000D03*
X146685000Y-125080000D03*
D10*
X146685000Y-109840000D03*
D12*
X132207000Y-121920000D03*
X138557000Y-119380000D03*
D11*
X134747000Y-116840000D03*
%TD*%
D12*
%TO.C,U35*%
X58420000Y-121920000D03*
X64770000Y-119380000D03*
D13*
X55880000Y-116840000D03*
X66040000Y-116840000D03*
D11*
X60960000Y-116840000D03*
%TD*%
D10*
%TO.C,U24*%
X58547000Y-90790000D03*
D11*
X58547000Y-106030000D03*
X82423000Y-106030000D03*
D10*
X82423000Y-90790000D03*
D12*
X67945000Y-102870000D03*
X74295000Y-100330000D03*
D11*
X70485000Y-97790000D03*
%TD*%
D12*
%TO.C,U42*%
X248920000Y-121920000D03*
X255270000Y-119380000D03*
D13*
X246380000Y-116840000D03*
X256540000Y-116840000D03*
D11*
X251460000Y-116840000D03*
%TD*%
D12*
%TO.C,U23*%
X260858000Y-83820000D03*
X267208000Y-81280000D03*
D13*
X258318000Y-78740000D03*
X268478000Y-78740000D03*
D11*
X263398000Y-78740000D03*
%TD*%
D14*
%TO.C,H16*%
X280035000Y-88265000D03*
%TD*%
%TO.C,H15*%
X241935000Y-126365000D03*
%TD*%
%TO.C,H14*%
X165735000Y-126365000D03*
%TD*%
%TO.C,H13*%
X89535000Y-126365000D03*
%TD*%
%TO.C,H12*%
X241935000Y-50165000D03*
%TD*%
%TO.C,H11*%
X165735000Y-50165000D03*
%TD*%
%TO.C,H10*%
X89535000Y-50165000D03*
%TD*%
%TO.C,H9*%
X51435000Y-88265000D03*
%TD*%
D12*
%TO.C,U41*%
X229870000Y-121920000D03*
X236220000Y-119380000D03*
D13*
X227330000Y-116840000D03*
X237490000Y-116840000D03*
D11*
X232410000Y-116840000D03*
%TD*%
D12*
%TO.C,U37*%
X96520000Y-121920000D03*
X102870000Y-119380000D03*
D13*
X93980000Y-116840000D03*
X104140000Y-116840000D03*
D11*
X99060000Y-116840000D03*
%TD*%
D12*
%TO.C,U36*%
X77470000Y-121920000D03*
X83820000Y-119380000D03*
D13*
X74930000Y-116840000D03*
X85090000Y-116840000D03*
D11*
X80010000Y-116840000D03*
%TD*%
D12*
%TO.C,U33*%
X248920000Y-102870000D03*
X255270000Y-100330000D03*
D13*
X246380000Y-97790000D03*
X256540000Y-97790000D03*
D11*
X251460000Y-97790000D03*
%TD*%
D12*
%TO.C,U32*%
X229870000Y-102870000D03*
X236220000Y-100330000D03*
D13*
X227330000Y-97790000D03*
X237490000Y-97790000D03*
D11*
X232410000Y-97790000D03*
%TD*%
D12*
%TO.C,U31*%
X210820000Y-102870000D03*
X217170000Y-100330000D03*
D13*
X208280000Y-97790000D03*
X218440000Y-97790000D03*
D11*
X213360000Y-97790000D03*
%TD*%
D12*
%TO.C,U30*%
X191770000Y-102870000D03*
X198120000Y-100330000D03*
D13*
X189230000Y-97790000D03*
X199390000Y-97790000D03*
D11*
X194310000Y-97790000D03*
%TD*%
D12*
%TO.C,U29*%
X172720000Y-102870000D03*
X179070000Y-100330000D03*
D13*
X170180000Y-97790000D03*
X180340000Y-97790000D03*
D11*
X175260000Y-97790000D03*
%TD*%
D12*
%TO.C,U28*%
X153670000Y-102870000D03*
X160020000Y-100330000D03*
D13*
X151130000Y-97790000D03*
X161290000Y-97790000D03*
D11*
X156210000Y-97790000D03*
%TD*%
D12*
%TO.C,U27*%
X134620000Y-102870000D03*
X140970000Y-100330000D03*
D13*
X132080000Y-97790000D03*
X142240000Y-97790000D03*
D11*
X137160000Y-97790000D03*
%TD*%
D12*
%TO.C,U26*%
X115570000Y-102870000D03*
X121920000Y-100330000D03*
D13*
X113030000Y-97790000D03*
X123190000Y-97790000D03*
D11*
X118110000Y-97790000D03*
%TD*%
D12*
%TO.C,U25*%
X96520000Y-102870000D03*
X102870000Y-100330000D03*
D13*
X93980000Y-97790000D03*
X104140000Y-97790000D03*
D11*
X99060000Y-97790000D03*
%TD*%
D12*
%TO.C,U22*%
X234696000Y-83820000D03*
X241046000Y-81280000D03*
D13*
X232156000Y-78740000D03*
X242316000Y-78740000D03*
D11*
X237236000Y-78740000D03*
%TD*%
D12*
%TO.C,U19*%
X177546000Y-83820000D03*
X183896000Y-81280000D03*
D13*
X175006000Y-78740000D03*
X185166000Y-78740000D03*
D11*
X180086000Y-78740000D03*
%TD*%
D12*
%TO.C,U17*%
X139446000Y-83820000D03*
X145796000Y-81280000D03*
D13*
X136906000Y-78740000D03*
X147066000Y-78740000D03*
D11*
X141986000Y-78740000D03*
%TD*%
D12*
%TO.C,U16*%
X120396000Y-83820000D03*
X126746000Y-81280000D03*
D13*
X117856000Y-78740000D03*
X128016000Y-78740000D03*
D11*
X122936000Y-78740000D03*
%TD*%
D12*
%TO.C,U15*%
X101346000Y-83820000D03*
X107696000Y-81280000D03*
D13*
X98806000Y-78740000D03*
X108966000Y-78740000D03*
D11*
X103886000Y-78740000D03*
%TD*%
D12*
%TO.C,U14*%
X82296000Y-83820000D03*
X88646000Y-81280000D03*
D13*
X79756000Y-78740000D03*
X89916000Y-78740000D03*
D11*
X84836000Y-78740000D03*
%TD*%
D12*
%TO.C,U12*%
X267970000Y-64770000D03*
X274320000Y-62230000D03*
D13*
X265430000Y-59690000D03*
X275590000Y-59690000D03*
D11*
X270510000Y-59690000D03*
%TD*%
D12*
%TO.C,U11*%
X248920000Y-64770000D03*
X255270000Y-62230000D03*
D13*
X246380000Y-59690000D03*
X256540000Y-59690000D03*
D11*
X251460000Y-59690000D03*
%TD*%
D12*
%TO.C,U10*%
X229870000Y-64770000D03*
X236220000Y-62230000D03*
D13*
X227330000Y-59690000D03*
X237490000Y-59690000D03*
D11*
X232410000Y-59690000D03*
%TD*%
D12*
%TO.C,U9*%
X210820000Y-64770000D03*
X217170000Y-62230000D03*
D13*
X208280000Y-59690000D03*
X218440000Y-59690000D03*
D11*
X213360000Y-59690000D03*
%TD*%
D12*
%TO.C,U8*%
X191770000Y-64770000D03*
X198120000Y-62230000D03*
D13*
X189230000Y-59690000D03*
X199390000Y-59690000D03*
D11*
X194310000Y-59690000D03*
%TD*%
D12*
%TO.C,U7*%
X172720000Y-64770000D03*
X179070000Y-62230000D03*
D13*
X170180000Y-59690000D03*
X180340000Y-59690000D03*
D11*
X175260000Y-59690000D03*
%TD*%
D12*
%TO.C,U6*%
X153670000Y-64770000D03*
X160020000Y-62230000D03*
D13*
X151130000Y-59690000D03*
X161290000Y-59690000D03*
D11*
X156210000Y-59690000D03*
%TD*%
D12*
%TO.C,U5*%
X134620000Y-64770000D03*
X140970000Y-62230000D03*
D13*
X132080000Y-59690000D03*
X142240000Y-59690000D03*
D11*
X137160000Y-59690000D03*
%TD*%
D12*
%TO.C,U4*%
X115570000Y-64770000D03*
X121920000Y-62230000D03*
D13*
X113030000Y-59690000D03*
X123190000Y-59690000D03*
D11*
X118110000Y-59690000D03*
%TD*%
D12*
%TO.C,U3*%
X96520000Y-64770000D03*
X102870000Y-62230000D03*
D13*
X93980000Y-59690000D03*
X104140000Y-59690000D03*
D11*
X99060000Y-59690000D03*
%TD*%
D12*
%TO.C,U2*%
X77470000Y-64770000D03*
X83820000Y-62230000D03*
D13*
X74930000Y-59690000D03*
X85090000Y-59690000D03*
D11*
X80010000Y-59690000D03*
%TD*%
D12*
%TO.C,U1*%
X58420000Y-64770000D03*
X64770000Y-62230000D03*
D13*
X55880000Y-59690000D03*
X66040000Y-59690000D03*
D11*
X60960000Y-59690000D03*
%TD*%
D14*
%TO.C,H8*%
X280035000Y-126365000D03*
%TD*%
%TO.C,H4*%
X203835000Y-126365000D03*
%TD*%
%TO.C,H7*%
X127635000Y-126365000D03*
%TD*%
%TO.C,H3*%
X51435000Y-126365000D03*
%TD*%
%TO.C,H6*%
X280035000Y-50165000D03*
%TD*%
%TO.C,H2*%
X203835000Y-50165000D03*
%TD*%
%TO.C,H5*%
X127635000Y-50165000D03*
%TD*%
%TO.C,H1*%
X51435000Y-50165000D03*
%TD*%
M02*
