M48
; DRILL file {KiCad (5.1.10)-1} date 09/02/21 23:13:27
; FORMAT={-:-/ absolute / inch / decimal}
; #@! TF.CreationDate,2021-09-02T23:13:27-06:00
; #@! TF.GenerationSoftware,Kicad,Pcbnew,(5.1.10)-1
; #@! TF.FileFunction,Plated,1,2,PTH
FMAT,2
INCH
T1C0.0157
%
G90
G05
T1
X2.218Y-2.9235
X2.225Y-4.375
X2.2323Y-2.122
X2.325Y-2.875
X2.525Y-2.675
X2.5595Y-4.285
X2.5595Y-4.421
X2.563Y-2.185
X2.5827Y-2.2638
X2.5915Y-3.6875
X2.6Y-3.625
X2.65Y-2.925
X2.7Y-2.675
X2.752Y-2.2795
X2.7992Y-2.2362
X2.8Y-3.33
X2.845Y-3.355
X2.855Y-2.98
X2.8819Y-4.7205
X2.9Y-3.38
X2.9055Y-2.6299
X2.9395Y-3.681
X2.98Y-2.12
X2.995Y-4.375
X3.0472Y-3.5984
X3.0534Y-3.6622
X3.1Y-3.3637
X3.1367Y-3.7116
X3.175Y-2.875
X3.2126Y-3.7402
X3.2975Y-4.2825
X3.311Y-4.4252
X3.3228Y-2.185
X3.325Y-2.625
X3.3386Y-3.4409
X3.45Y-2.675
X3.4764Y-3.9094
X3.4921Y-3.5354
X3.5055Y-2.9275
X3.5472Y-3.6142
X3.55Y-4.475
X3.622Y-4.7323
X3.6408Y-3.5699
X3.6565Y-4.131
X3.6693Y-2.6378
X3.725Y-3.625
X3.735Y-2.12
X3.74Y-4.37
X3.7885Y-3.361
X3.9115Y-4.221
X3.925Y-2.875
X4.044Y-4.221
X4.06Y-2.61
X4.065Y-4.425
X4.0685Y-3.6865
X4.07Y-2.185
X4.108Y-3.4455
X4.1285Y-3.7125
X4.2Y-2.675
X4.259Y-2.9265
X4.3385Y-4.054
X4.3543Y-2.6142
X4.49Y-2.12
X4.5335Y-3.31
X4.675Y-2.875
X4.7285Y-4.22
X4.805Y-2.205
X4.815Y-3.675
X4.82Y-2.62
X5.0085Y-2.94
X5.042Y-4.7255
X5.0787Y-2.5512
X5.08Y-4.06
X5.125Y-4.375
X5.23Y-3.62
X5.235Y-2.125
X5.2745Y-3.286
X5.425Y-2.875
X5.4615Y-4.221
X5.466Y-4.4235
X5.565Y-2.615
X5.5685Y-3.6785
X5.57Y-2.195
X5.6575Y-4.221
X5.7535Y-2.928
X5.829Y-4.047
X5.8346Y-2.6299
X5.975Y-3.615
X5.985Y-2.125
X6.0375Y-3.37
X6.045Y-4.165
X6.175Y-2.875
X6.32Y-2.185
X6.32Y-2.62
X6.3235Y-3.679
X6.3965Y-4.2235
X6.45Y-2.675
X6.5135Y-2.929
X6.573Y-4.0275
X6.6Y-2.63
X6.72Y-3.625
X6.725Y-2.12
X6.7805Y-3.357
X6.805Y-4.16
X6.867Y-4.7795
X6.925Y-2.875
X7.0Y-4.375
X7.071Y-3.6795
X7.075Y-2.185
X7.075Y-2.6
X7.171Y-4.222
X7.2Y-2.675
X7.2495Y-2.9275
X7.32Y-2.625
X7.326Y-4.0455
X7.3495Y-4.222
X7.3525Y-4.4325
X7.475Y-2.115
X7.48Y-3.62
X7.5375Y-3.3445
X7.675Y-2.875
X7.82Y-2.62
X7.825Y-3.685
X7.83Y-2.18
X7.897Y-4.222
X7.95Y-2.675
X8.002Y-2.926
X8.0675Y-4.0175
X8.068Y-4.775
X8.075Y-2.595
X8.22Y-2.12
X8.22Y-3.62
X8.235Y-4.37
X8.2745Y-3.2945
X8.4Y-4.222
X8.425Y-2.875
X8.565Y-3.685
X8.5755Y-4.222
X8.58Y-2.2
X8.58Y-2.61
X8.58Y-4.43
X8.7Y-2.675
X8.748Y-2.931
X8.82Y-2.59
X8.833Y-4.7935
X8.8365Y-4.039
X8.975Y-4.375
X8.98Y-2.115
X8.98Y-3.62
X9.0225Y-3.3085
X9.175Y-2.875
X9.2245Y-4.2195
X9.3185Y-3.687
X9.32Y-2.18
X9.324Y-4.4285
X9.325Y-2.63
X9.338Y-4.222
X9.45Y-2.675
X9.5025Y-2.9295
X9.57Y-4.0595
X9.585Y-2.56
X9.588Y-4.773
X9.705Y-3.428
X9.725Y-2.125
X9.725Y-4.375
X9.73Y-3.625
X9.971Y-4.2245
X10.066Y-3.23
X10.068Y-3.683
X10.0695Y-4.4355
X10.072Y-3.631
X10.0765Y-4.222
X10.08Y-2.18
X10.08Y-2.625
X10.172Y-2.7907
X10.2Y-2.675
X10.2Y-2.875
X10.2677Y-3.5118
X10.315Y-2.605
X10.331Y-4.7645
X10.336Y-3.972
X10.4055Y-3.4921
X10.47Y-2.115
X10.475Y-3.625
X10.475Y-4.375
X10.478Y-3.6865
X10.529Y-2.925
X10.539Y-3.495
X10.539Y-3.495
X10.6715Y-2.6125
X10.73Y-2.855
X10.73Y-3.4015
X10.8Y-2.625
X10.816Y-4.222
X10.816Y-4.418
X10.8175Y-3.68
X10.825Y-2.18
X10.854Y-4.052
X10.8565Y-3.6645
X10.863Y-4.361
X10.865Y-2.125
X10.865Y-3.6175
X10.878Y-4.1825
X10.9Y-2.6
T0
M30
