%TF.GenerationSoftware,KiCad,Pcbnew,(5.1.10)-1*%
%TF.CreationDate,2021-09-28T22:37:18-06:00*%
%TF.ProjectId,MX43,4d583433-2e6b-4696-9361-645f70636258,rev?*%
%TF.SameCoordinates,Original*%
%TF.FileFunction,Legend,Bot*%
%TF.FilePolarity,Positive*%
%FSLAX46Y46*%
G04 Gerber Fmt 4.6, Leading zero omitted, Abs format (unit mm)*
G04 Created by KiCad (PCBNEW (5.1.10)-1) date 2021-09-28 22:37:18*
%MOMM*%
%LPD*%
G01*
G04 APERTURE LIST*
%ADD10C,0.150000*%
%ADD11C,0.300000*%
%ADD12C,0.120000*%
G04 APERTURE END LIST*
D10*
X100504047Y-108037380D02*
X100504047Y-108751666D01*
X100551666Y-108894523D01*
X100646904Y-108989761D01*
X100789761Y-109037380D01*
X100885000Y-109037380D01*
X99551666Y-109037380D02*
X100027857Y-109037380D01*
X100027857Y-108037380D01*
X98646904Y-108942142D02*
X98694523Y-108989761D01*
X98837380Y-109037380D01*
X98932619Y-109037380D01*
X99075476Y-108989761D01*
X99170714Y-108894523D01*
X99218333Y-108799285D01*
X99265952Y-108608809D01*
X99265952Y-108465952D01*
X99218333Y-108275476D01*
X99170714Y-108180238D01*
X99075476Y-108085000D01*
X98932619Y-108037380D01*
X98837380Y-108037380D01*
X98694523Y-108085000D01*
X98646904Y-108132619D01*
X97932619Y-108037380D02*
X97932619Y-108751666D01*
X97980238Y-108894523D01*
X98075476Y-108989761D01*
X98218333Y-109037380D01*
X98313571Y-109037380D01*
X96980238Y-109037380D02*
X97456428Y-109037380D01*
X97456428Y-108037380D01*
X96075476Y-108942142D02*
X96123095Y-108989761D01*
X96265952Y-109037380D01*
X96361190Y-109037380D01*
X96504047Y-108989761D01*
X96599285Y-108894523D01*
X96646904Y-108799285D01*
X96694523Y-108608809D01*
X96694523Y-108465952D01*
X96646904Y-108275476D01*
X96599285Y-108180238D01*
X96504047Y-108085000D01*
X96361190Y-108037380D01*
X96265952Y-108037380D01*
X96123095Y-108085000D01*
X96075476Y-108132619D01*
X95361190Y-108037380D02*
X95361190Y-108751666D01*
X95408809Y-108894523D01*
X95504047Y-108989761D01*
X95646904Y-109037380D01*
X95742142Y-109037380D01*
X94408809Y-109037380D02*
X94885000Y-109037380D01*
X94885000Y-108037380D01*
X93504047Y-108942142D02*
X93551666Y-108989761D01*
X93694523Y-109037380D01*
X93789761Y-109037380D01*
X93932619Y-108989761D01*
X94027857Y-108894523D01*
X94075476Y-108799285D01*
X94123095Y-108608809D01*
X94123095Y-108465952D01*
X94075476Y-108275476D01*
X94027857Y-108180238D01*
X93932619Y-108085000D01*
X93789761Y-108037380D01*
X93694523Y-108037380D01*
X93551666Y-108085000D01*
X93504047Y-108132619D01*
X92789761Y-108037380D02*
X92789761Y-108751666D01*
X92837380Y-108894523D01*
X92932619Y-108989761D01*
X93075476Y-109037380D01*
X93170714Y-109037380D01*
X91837380Y-109037380D02*
X92313571Y-109037380D01*
X92313571Y-108037380D01*
X90932619Y-108942142D02*
X90980238Y-108989761D01*
X91123095Y-109037380D01*
X91218333Y-109037380D01*
X91361190Y-108989761D01*
X91456428Y-108894523D01*
X91504047Y-108799285D01*
X91551666Y-108608809D01*
X91551666Y-108465952D01*
X91504047Y-108275476D01*
X91456428Y-108180238D01*
X91361190Y-108085000D01*
X91218333Y-108037380D01*
X91123095Y-108037380D01*
X90980238Y-108085000D01*
X90932619Y-108132619D01*
X258903214Y-106307380D02*
X259379404Y-106307380D01*
X259379404Y-105307380D01*
X258569880Y-106307380D02*
X258569880Y-105640714D01*
X258569880Y-105307380D02*
X258617500Y-105355000D01*
X258569880Y-105402619D01*
X258522261Y-105355000D01*
X258569880Y-105307380D01*
X258569880Y-105402619D01*
X257665119Y-106259761D02*
X257760357Y-106307380D01*
X257950833Y-106307380D01*
X258046071Y-106259761D01*
X258093690Y-106212142D01*
X258141309Y-106116904D01*
X258141309Y-105831190D01*
X258093690Y-105735952D01*
X258046071Y-105688333D01*
X257950833Y-105640714D01*
X257760357Y-105640714D01*
X257665119Y-105688333D01*
X256855595Y-106259761D02*
X256950833Y-106307380D01*
X257141309Y-106307380D01*
X257236547Y-106259761D01*
X257284166Y-106164523D01*
X257284166Y-105783571D01*
X257236547Y-105688333D01*
X257141309Y-105640714D01*
X256950833Y-105640714D01*
X256855595Y-105688333D01*
X256807976Y-105783571D01*
X256807976Y-105878809D01*
X257284166Y-105974047D01*
X256379404Y-105640714D02*
X256379404Y-106307380D01*
X256379404Y-105735952D02*
X256331785Y-105688333D01*
X256236547Y-105640714D01*
X256093690Y-105640714D01*
X255998452Y-105688333D01*
X255950833Y-105783571D01*
X255950833Y-106307380D01*
X255522261Y-106259761D02*
X255427023Y-106307380D01*
X255236547Y-106307380D01*
X255141309Y-106259761D01*
X255093690Y-106164523D01*
X255093690Y-106116904D01*
X255141309Y-106021666D01*
X255236547Y-105974047D01*
X255379404Y-105974047D01*
X255474642Y-105926428D01*
X255522261Y-105831190D01*
X255522261Y-105783571D01*
X255474642Y-105688333D01*
X255379404Y-105640714D01*
X255236547Y-105640714D01*
X255141309Y-105688333D01*
X254284166Y-106259761D02*
X254379404Y-106307380D01*
X254569880Y-106307380D01*
X254665119Y-106259761D01*
X254712738Y-106164523D01*
X254712738Y-105783571D01*
X254665119Y-105688333D01*
X254569880Y-105640714D01*
X254379404Y-105640714D01*
X254284166Y-105688333D01*
X254236547Y-105783571D01*
X254236547Y-105878809D01*
X254712738Y-105974047D01*
X253807976Y-106212142D02*
X253760357Y-106259761D01*
X253807976Y-106307380D01*
X253855595Y-106259761D01*
X253807976Y-106212142D01*
X253807976Y-106307380D01*
X253807976Y-105688333D02*
X253760357Y-105735952D01*
X253807976Y-105783571D01*
X253855595Y-105735952D01*
X253807976Y-105688333D01*
X253807976Y-105783571D01*
X251998452Y-106212142D02*
X252046071Y-106259761D01*
X252188928Y-106307380D01*
X252284166Y-106307380D01*
X252427023Y-106259761D01*
X252522261Y-106164523D01*
X252569880Y-106069285D01*
X252617500Y-105878809D01*
X252617500Y-105735952D01*
X252569880Y-105545476D01*
X252522261Y-105450238D01*
X252427023Y-105355000D01*
X252284166Y-105307380D01*
X252188928Y-105307380D01*
X252046071Y-105355000D01*
X251998452Y-105402619D01*
X251569880Y-105783571D02*
X251236547Y-105783571D01*
X251093690Y-106307380D02*
X251569880Y-106307380D01*
X251569880Y-105307380D01*
X251093690Y-105307380D01*
X250093690Y-106307380D02*
X250427023Y-105831190D01*
X250665119Y-106307380D02*
X250665119Y-105307380D01*
X250284166Y-105307380D01*
X250188928Y-105355000D01*
X250141309Y-105402619D01*
X250093690Y-105497857D01*
X250093690Y-105640714D01*
X250141309Y-105735952D01*
X250188928Y-105783571D01*
X250284166Y-105831190D01*
X250665119Y-105831190D01*
X249665119Y-106307380D02*
X249665119Y-105307380D01*
X249093690Y-106307380D01*
X249093690Y-105307380D01*
X248617500Y-105926428D02*
X247855595Y-105926428D01*
X247188928Y-105307380D02*
X246998452Y-105307380D01*
X246903214Y-105355000D01*
X246807976Y-105450238D01*
X246760357Y-105640714D01*
X246760357Y-105974047D01*
X246807976Y-106164523D01*
X246903214Y-106259761D01*
X246998452Y-106307380D01*
X247188928Y-106307380D01*
X247284166Y-106259761D01*
X247379404Y-106164523D01*
X247427023Y-105974047D01*
X247427023Y-105640714D01*
X247379404Y-105450238D01*
X247284166Y-105355000D01*
X247188928Y-105307380D01*
X246331785Y-106307380D02*
X246331785Y-105307380D01*
X246331785Y-105783571D02*
X245760357Y-105783571D01*
X245760357Y-106307380D02*
X245760357Y-105307380D01*
X244807976Y-106307380D02*
X245284166Y-106307380D01*
X245284166Y-105307380D01*
X244474642Y-105926428D02*
X243712738Y-105926428D01*
X243331785Y-105307380D02*
X243093690Y-106307380D01*
X242903214Y-105593095D01*
X242712738Y-106307380D01*
X242474642Y-105307380D01*
X239807976Y-106307380D02*
X239807976Y-105307380D01*
X239379404Y-106307380D02*
X239379404Y-105783571D01*
X239427023Y-105688333D01*
X239522261Y-105640714D01*
X239665119Y-105640714D01*
X239760357Y-105688333D01*
X239807976Y-105735952D01*
X239046071Y-105640714D02*
X238665119Y-105640714D01*
X238903214Y-105307380D02*
X238903214Y-106164523D01*
X238855595Y-106259761D01*
X238760357Y-106307380D01*
X238665119Y-106307380D01*
X238474642Y-105640714D02*
X238093690Y-105640714D01*
X238331785Y-105307380D02*
X238331785Y-106164523D01*
X238284166Y-106259761D01*
X238188928Y-106307380D01*
X238093690Y-106307380D01*
X237760357Y-105640714D02*
X237760357Y-106640714D01*
X237760357Y-105688333D02*
X237665119Y-105640714D01*
X237474642Y-105640714D01*
X237379404Y-105688333D01*
X237331785Y-105735952D01*
X237284166Y-105831190D01*
X237284166Y-106116904D01*
X237331785Y-106212142D01*
X237379404Y-106259761D01*
X237474642Y-106307380D01*
X237665119Y-106307380D01*
X237760357Y-106259761D01*
X236903214Y-106259761D02*
X236807976Y-106307380D01*
X236617500Y-106307380D01*
X236522261Y-106259761D01*
X236474642Y-106164523D01*
X236474642Y-106116904D01*
X236522261Y-106021666D01*
X236617500Y-105974047D01*
X236760357Y-105974047D01*
X236855595Y-105926428D01*
X236903214Y-105831190D01*
X236903214Y-105783571D01*
X236855595Y-105688333D01*
X236760357Y-105640714D01*
X236617500Y-105640714D01*
X236522261Y-105688333D01*
X236046071Y-106212142D02*
X235998452Y-106259761D01*
X236046071Y-106307380D01*
X236093690Y-106259761D01*
X236046071Y-106212142D01*
X236046071Y-106307380D01*
X236046071Y-105688333D02*
X235998452Y-105735952D01*
X236046071Y-105783571D01*
X236093690Y-105735952D01*
X236046071Y-105688333D01*
X236046071Y-105783571D01*
X234855595Y-105259761D02*
X235712738Y-106545476D01*
X233807976Y-105259761D02*
X234665119Y-106545476D01*
X233046071Y-105640714D02*
X233046071Y-106450238D01*
X233093690Y-106545476D01*
X233141309Y-106593095D01*
X233236547Y-106640714D01*
X233379404Y-106640714D01*
X233474642Y-106593095D01*
X233046071Y-106259761D02*
X233141309Y-106307380D01*
X233331785Y-106307380D01*
X233427023Y-106259761D01*
X233474642Y-106212142D01*
X233522261Y-106116904D01*
X233522261Y-105831190D01*
X233474642Y-105735952D01*
X233427023Y-105688333D01*
X233331785Y-105640714D01*
X233141309Y-105640714D01*
X233046071Y-105688333D01*
X232569880Y-106307380D02*
X232569880Y-105640714D01*
X232569880Y-105307380D02*
X232617500Y-105355000D01*
X232569880Y-105402619D01*
X232522261Y-105355000D01*
X232569880Y-105307380D01*
X232569880Y-105402619D01*
X232236547Y-105640714D02*
X231855595Y-105640714D01*
X232093690Y-105307380D02*
X232093690Y-106164523D01*
X232046071Y-106259761D01*
X231950833Y-106307380D01*
X231855595Y-106307380D01*
X231522261Y-106307380D02*
X231522261Y-105307380D01*
X231093690Y-106307380D02*
X231093690Y-105783571D01*
X231141309Y-105688333D01*
X231236547Y-105640714D01*
X231379404Y-105640714D01*
X231474642Y-105688333D01*
X231522261Y-105735952D01*
X230188928Y-105640714D02*
X230188928Y-106307380D01*
X230617500Y-105640714D02*
X230617500Y-106164523D01*
X230569880Y-106259761D01*
X230474642Y-106307380D01*
X230331785Y-106307380D01*
X230236547Y-106259761D01*
X230188928Y-106212142D01*
X229712738Y-106307380D02*
X229712738Y-105307380D01*
X229712738Y-105688333D02*
X229617500Y-105640714D01*
X229427023Y-105640714D01*
X229331785Y-105688333D01*
X229284166Y-105735952D01*
X229236547Y-105831190D01*
X229236547Y-106116904D01*
X229284166Y-106212142D01*
X229331785Y-106259761D01*
X229427023Y-106307380D01*
X229617500Y-106307380D01*
X229712738Y-106259761D01*
X228807976Y-106212142D02*
X228760357Y-106259761D01*
X228807976Y-106307380D01*
X228855595Y-106259761D01*
X228807976Y-106212142D01*
X228807976Y-106307380D01*
X227903214Y-106259761D02*
X227998452Y-106307380D01*
X228188928Y-106307380D01*
X228284166Y-106259761D01*
X228331785Y-106212142D01*
X228379404Y-106116904D01*
X228379404Y-105831190D01*
X228331785Y-105735952D01*
X228284166Y-105688333D01*
X228188928Y-105640714D01*
X227998452Y-105640714D01*
X227903214Y-105688333D01*
X227331785Y-106307380D02*
X227427023Y-106259761D01*
X227474642Y-106212142D01*
X227522261Y-106116904D01*
X227522261Y-105831190D01*
X227474642Y-105735952D01*
X227427023Y-105688333D01*
X227331785Y-105640714D01*
X227188928Y-105640714D01*
X227093690Y-105688333D01*
X227046071Y-105735952D01*
X226998452Y-105831190D01*
X226998452Y-106116904D01*
X227046071Y-106212142D01*
X227093690Y-106259761D01*
X227188928Y-106307380D01*
X227331785Y-106307380D01*
X226569880Y-106307380D02*
X226569880Y-105640714D01*
X226569880Y-105735952D02*
X226522261Y-105688333D01*
X226427023Y-105640714D01*
X226284166Y-105640714D01*
X226188928Y-105688333D01*
X226141309Y-105783571D01*
X226141309Y-106307380D01*
X226141309Y-105783571D02*
X226093690Y-105688333D01*
X225998452Y-105640714D01*
X225855595Y-105640714D01*
X225760357Y-105688333D01*
X225712738Y-105783571D01*
X225712738Y-106307380D01*
X224522261Y-105259761D02*
X225379404Y-106545476D01*
X224188928Y-105640714D02*
X224188928Y-106497857D01*
X224236547Y-106593095D01*
X224331785Y-106640714D01*
X224379404Y-106640714D01*
X224188928Y-105307380D02*
X224236547Y-105355000D01*
X224188928Y-105402619D01*
X224141309Y-105355000D01*
X224188928Y-105307380D01*
X224188928Y-105402619D01*
X223712738Y-105640714D02*
X223712738Y-106640714D01*
X223712738Y-105688333D02*
X223617500Y-105640714D01*
X223427023Y-105640714D01*
X223331785Y-105688333D01*
X223284166Y-105735952D01*
X223236547Y-105831190D01*
X223236547Y-106116904D01*
X223284166Y-106212142D01*
X223331785Y-106259761D01*
X223427023Y-106307380D01*
X223617500Y-106307380D01*
X223712738Y-106259761D01*
X222379404Y-106259761D02*
X222474642Y-106307380D01*
X222665119Y-106307380D01*
X222760357Y-106259761D01*
X222807976Y-106212142D01*
X222855595Y-106116904D01*
X222855595Y-105831190D01*
X222807976Y-105735952D01*
X222760357Y-105688333D01*
X222665119Y-105640714D01*
X222474642Y-105640714D01*
X222379404Y-105688333D01*
X221807976Y-106307380D02*
X221903214Y-106259761D01*
X221950833Y-106212142D01*
X221998452Y-106116904D01*
X221998452Y-105831190D01*
X221950833Y-105735952D01*
X221903214Y-105688333D01*
X221807976Y-105640714D01*
X221665119Y-105640714D01*
X221569880Y-105688333D01*
X221522261Y-105735952D01*
X221474642Y-105831190D01*
X221474642Y-106116904D01*
X221522261Y-106212142D01*
X221569880Y-106259761D01*
X221665119Y-106307380D01*
X221807976Y-106307380D01*
X221046071Y-105640714D02*
X221046071Y-106307380D01*
X221046071Y-105735952D02*
X220998452Y-105688333D01*
X220903214Y-105640714D01*
X220760357Y-105640714D01*
X220665119Y-105688333D01*
X220617500Y-105783571D01*
X220617500Y-106307380D01*
X220188928Y-106259761D02*
X220093690Y-106307380D01*
X219903214Y-106307380D01*
X219807976Y-106259761D01*
X219760357Y-106164523D01*
X219760357Y-106116904D01*
X219807976Y-106021666D01*
X219903214Y-105974047D01*
X220046071Y-105974047D01*
X220141309Y-105926428D01*
X220188928Y-105831190D01*
X220188928Y-105783571D01*
X220141309Y-105688333D01*
X220046071Y-105640714D01*
X219903214Y-105640714D01*
X219807976Y-105688333D01*
X219474642Y-105640714D02*
X219093690Y-105640714D01*
X219331785Y-105307380D02*
X219331785Y-106164523D01*
X219284166Y-106259761D01*
X219188928Y-106307380D01*
X219093690Y-106307380D01*
X218331785Y-106307380D02*
X218331785Y-105783571D01*
X218379404Y-105688333D01*
X218474642Y-105640714D01*
X218665119Y-105640714D01*
X218760357Y-105688333D01*
X218331785Y-106259761D02*
X218427023Y-106307380D01*
X218665119Y-106307380D01*
X218760357Y-106259761D01*
X218807976Y-106164523D01*
X218807976Y-106069285D01*
X218760357Y-105974047D01*
X218665119Y-105926428D01*
X218427023Y-105926428D01*
X218331785Y-105878809D01*
X217855595Y-105640714D02*
X217855595Y-106307380D01*
X217855595Y-105735952D02*
X217807976Y-105688333D01*
X217712738Y-105640714D01*
X217569880Y-105640714D01*
X217474642Y-105688333D01*
X217427023Y-105783571D01*
X217427023Y-106307380D01*
X217093690Y-105640714D02*
X216712738Y-105640714D01*
X216950833Y-105307380D02*
X216950833Y-106164523D01*
X216903214Y-106259761D01*
X216807976Y-106307380D01*
X216712738Y-106307380D01*
X216379404Y-106307380D02*
X216379404Y-105640714D01*
X216379404Y-105307380D02*
X216427023Y-105355000D01*
X216379404Y-105402619D01*
X216331785Y-105355000D01*
X216379404Y-105307380D01*
X216379404Y-105402619D01*
X215903214Y-105640714D02*
X215903214Y-106307380D01*
X215903214Y-105735952D02*
X215855595Y-105688333D01*
X215760357Y-105640714D01*
X215617500Y-105640714D01*
X215522261Y-105688333D01*
X215474642Y-105783571D01*
X215474642Y-106307380D01*
X214617500Y-106259761D02*
X214712738Y-106307380D01*
X214903214Y-106307380D01*
X214998452Y-106259761D01*
X215046071Y-106164523D01*
X215046071Y-105783571D01*
X214998452Y-105688333D01*
X214903214Y-105640714D01*
X214712738Y-105640714D01*
X214617500Y-105688333D01*
X214569880Y-105783571D01*
X214569880Y-105878809D01*
X215046071Y-105974047D01*
X213712738Y-106307380D02*
X213712738Y-105783571D01*
X213760357Y-105688333D01*
X213855595Y-105640714D01*
X214046071Y-105640714D01*
X214141309Y-105688333D01*
X213712738Y-106259761D02*
X213807976Y-106307380D01*
X214046071Y-106307380D01*
X214141309Y-106259761D01*
X214188928Y-106164523D01*
X214188928Y-106069285D01*
X214141309Y-105974047D01*
X214046071Y-105926428D01*
X213807976Y-105926428D01*
X213712738Y-105878809D01*
X212807976Y-105640714D02*
X212807976Y-106307380D01*
X213236547Y-105640714D02*
X213236547Y-106164523D01*
X213188928Y-106259761D01*
X213093690Y-106307380D01*
X212950833Y-106307380D01*
X212855595Y-106259761D01*
X212807976Y-106212142D01*
X211617500Y-105259761D02*
X212474642Y-106545476D01*
X211093690Y-105307380D02*
X210903214Y-105307380D01*
X210807976Y-105355000D01*
X210712738Y-105450238D01*
X210665119Y-105640714D01*
X210665119Y-105974047D01*
X210712738Y-106164523D01*
X210807976Y-106259761D01*
X210903214Y-106307380D01*
X211093690Y-106307380D01*
X211188928Y-106259761D01*
X211284166Y-106164523D01*
X211331785Y-105974047D01*
X211331785Y-105640714D01*
X211284166Y-105450238D01*
X211188928Y-105355000D01*
X211093690Y-105307380D01*
X210379404Y-105640714D02*
X209998452Y-105640714D01*
X210236547Y-106307380D02*
X210236547Y-105450238D01*
X210188928Y-105355000D01*
X210093690Y-105307380D01*
X209998452Y-105307380D01*
X209807976Y-105640714D02*
X209427023Y-105640714D01*
X209665119Y-106307380D02*
X209665119Y-105450238D01*
X209617500Y-105355000D01*
X209522261Y-105307380D01*
X209427023Y-105307380D01*
X209141309Y-106259761D02*
X209046071Y-106307380D01*
X208855595Y-106307380D01*
X208760357Y-106259761D01*
X208712738Y-106164523D01*
X208712738Y-106116904D01*
X208760357Y-106021666D01*
X208855595Y-105974047D01*
X208998452Y-105974047D01*
X209093690Y-105926428D01*
X209141309Y-105831190D01*
X209141309Y-105783571D01*
X209093690Y-105688333D01*
X208998452Y-105640714D01*
X208855595Y-105640714D01*
X208760357Y-105688333D01*
X207903214Y-106259761D02*
X207998452Y-106307380D01*
X208188928Y-106307380D01*
X208284166Y-106259761D01*
X208331785Y-106164523D01*
X208331785Y-105783571D01*
X208284166Y-105688333D01*
X208188928Y-105640714D01*
X207998452Y-105640714D01*
X207903214Y-105688333D01*
X207855595Y-105783571D01*
X207855595Y-105878809D01*
X208331785Y-105974047D01*
X207569880Y-105640714D02*
X207188928Y-105640714D01*
X207427023Y-105307380D02*
X207427023Y-106164523D01*
X207379404Y-106259761D01*
X207284166Y-106307380D01*
X207188928Y-106307380D01*
X206855595Y-106307380D02*
X206855595Y-105307380D01*
X206522261Y-106021666D01*
X206188928Y-105307380D01*
X206188928Y-106307380D01*
X205807976Y-105307380D02*
X205141309Y-106307380D01*
X205141309Y-105307380D02*
X205807976Y-106307380D01*
X204331785Y-105640714D02*
X204331785Y-106307380D01*
X204569880Y-105259761D02*
X204807976Y-105974047D01*
X204188928Y-105974047D01*
X203903214Y-105307380D02*
X203284166Y-105307380D01*
X203617500Y-105688333D01*
X203474642Y-105688333D01*
X203379404Y-105735952D01*
X203331785Y-105783571D01*
X203284166Y-105878809D01*
X203284166Y-106116904D01*
X203331785Y-106212142D01*
X203379404Y-106259761D01*
X203474642Y-106307380D01*
X203760357Y-106307380D01*
X203855595Y-106259761D01*
X203903214Y-106212142D01*
X259427023Y-107052619D02*
X259379404Y-107005000D01*
X259284166Y-106957380D01*
X259046071Y-106957380D01*
X258950833Y-107005000D01*
X258903214Y-107052619D01*
X258855595Y-107147857D01*
X258855595Y-107243095D01*
X258903214Y-107385952D01*
X259474642Y-107957380D01*
X258855595Y-107957380D01*
X258236547Y-106957380D02*
X258141309Y-106957380D01*
X258046071Y-107005000D01*
X257998452Y-107052619D01*
X257950833Y-107147857D01*
X257903214Y-107338333D01*
X257903214Y-107576428D01*
X257950833Y-107766904D01*
X257998452Y-107862142D01*
X258046071Y-107909761D01*
X258141309Y-107957380D01*
X258236547Y-107957380D01*
X258331785Y-107909761D01*
X258379404Y-107862142D01*
X258427023Y-107766904D01*
X258474642Y-107576428D01*
X258474642Y-107338333D01*
X258427023Y-107147857D01*
X258379404Y-107052619D01*
X258331785Y-107005000D01*
X258236547Y-106957380D01*
X257522261Y-107052619D02*
X257474642Y-107005000D01*
X257379404Y-106957380D01*
X257141309Y-106957380D01*
X257046071Y-107005000D01*
X256998452Y-107052619D01*
X256950833Y-107147857D01*
X256950833Y-107243095D01*
X256998452Y-107385952D01*
X257569880Y-107957380D01*
X256950833Y-107957380D01*
X255998452Y-107957380D02*
X256569880Y-107957380D01*
X256284166Y-107957380D02*
X256284166Y-106957380D01*
X256379404Y-107100238D01*
X256474642Y-107195476D01*
X256569880Y-107243095D01*
X255569880Y-107576428D02*
X254807976Y-107576428D01*
X254141309Y-106957380D02*
X254046071Y-106957380D01*
X253950833Y-107005000D01*
X253903214Y-107052619D01*
X253855595Y-107147857D01*
X253807976Y-107338333D01*
X253807976Y-107576428D01*
X253855595Y-107766904D01*
X253903214Y-107862142D01*
X253950833Y-107909761D01*
X254046071Y-107957380D01*
X254141309Y-107957380D01*
X254236547Y-107909761D01*
X254284166Y-107862142D01*
X254331785Y-107766904D01*
X254379404Y-107576428D01*
X254379404Y-107338333D01*
X254331785Y-107147857D01*
X254284166Y-107052619D01*
X254236547Y-107005000D01*
X254141309Y-106957380D01*
X253331785Y-107957380D02*
X253141309Y-107957380D01*
X253046071Y-107909761D01*
X252998452Y-107862142D01*
X252903214Y-107719285D01*
X252855595Y-107528809D01*
X252855595Y-107147857D01*
X252903214Y-107052619D01*
X252950833Y-107005000D01*
X253046071Y-106957380D01*
X253236547Y-106957380D01*
X253331785Y-107005000D01*
X253379404Y-107052619D01*
X253427023Y-107147857D01*
X253427023Y-107385952D01*
X253379404Y-107481190D01*
X253331785Y-107528809D01*
X253236547Y-107576428D01*
X253046071Y-107576428D01*
X252950833Y-107528809D01*
X252903214Y-107481190D01*
X252855595Y-107385952D01*
X252427023Y-107576428D02*
X251665119Y-107576428D01*
X251236547Y-107052619D02*
X251188928Y-107005000D01*
X251093690Y-106957380D01*
X250855595Y-106957380D01*
X250760357Y-107005000D01*
X250712738Y-107052619D01*
X250665119Y-107147857D01*
X250665119Y-107243095D01*
X250712738Y-107385952D01*
X251284166Y-107957380D01*
X250665119Y-107957380D01*
X250093690Y-107385952D02*
X250188928Y-107338333D01*
X250236547Y-107290714D01*
X250284166Y-107195476D01*
X250284166Y-107147857D01*
X250236547Y-107052619D01*
X250188928Y-107005000D01*
X250093690Y-106957380D01*
X249903214Y-106957380D01*
X249807976Y-107005000D01*
X249760357Y-107052619D01*
X249712738Y-107147857D01*
X249712738Y-107195476D01*
X249760357Y-107290714D01*
X249807976Y-107338333D01*
X249903214Y-107385952D01*
X250093690Y-107385952D01*
X250188928Y-107433571D01*
X250236547Y-107481190D01*
X250284166Y-107576428D01*
X250284166Y-107766904D01*
X250236547Y-107862142D01*
X250188928Y-107909761D01*
X250093690Y-107957380D01*
X249903214Y-107957380D01*
X249807976Y-107909761D01*
X249760357Y-107862142D01*
X249712738Y-107766904D01*
X249712738Y-107576428D01*
X249760357Y-107481190D01*
X249807976Y-107433571D01*
X249903214Y-107385952D01*
X221510952Y-89463571D02*
X221368095Y-89511190D01*
X221320476Y-89558809D01*
X221272857Y-89654047D01*
X221272857Y-89796904D01*
X221320476Y-89892142D01*
X221368095Y-89939761D01*
X221463333Y-89987380D01*
X221844285Y-89987380D01*
X221844285Y-88987380D01*
X221510952Y-88987380D01*
X221415714Y-89035000D01*
X221368095Y-89082619D01*
X221320476Y-89177857D01*
X221320476Y-89273095D01*
X221368095Y-89368333D01*
X221415714Y-89415952D01*
X221510952Y-89463571D01*
X221844285Y-89463571D01*
X220939523Y-89320714D02*
X220701428Y-89987380D01*
X220463333Y-89320714D02*
X220701428Y-89987380D01*
X220796666Y-90225476D01*
X220844285Y-90273095D01*
X220939523Y-90320714D01*
X219034761Y-88987380D02*
X219034761Y-89701666D01*
X219082380Y-89844523D01*
X219177619Y-89939761D01*
X219320476Y-89987380D01*
X219415714Y-89987380D01*
X218558571Y-89987380D02*
X218558571Y-88987380D01*
X218177619Y-88987380D01*
X218082380Y-89035000D01*
X218034761Y-89082619D01*
X217987142Y-89177857D01*
X217987142Y-89320714D01*
X218034761Y-89415952D01*
X218082380Y-89463571D01*
X218177619Y-89511190D01*
X218558571Y-89511190D01*
X216987142Y-89892142D02*
X217034761Y-89939761D01*
X217177619Y-89987380D01*
X217272857Y-89987380D01*
X217415714Y-89939761D01*
X217510952Y-89844523D01*
X217558571Y-89749285D01*
X217606190Y-89558809D01*
X217606190Y-89415952D01*
X217558571Y-89225476D01*
X217510952Y-89130238D01*
X217415714Y-89035000D01*
X217272857Y-88987380D01*
X217177619Y-88987380D01*
X217034761Y-89035000D01*
X216987142Y-89082619D01*
X216415714Y-89987380D02*
X216510952Y-89939761D01*
X216558571Y-89892142D01*
X216606190Y-89796904D01*
X216606190Y-89511190D01*
X216558571Y-89415952D01*
X216510952Y-89368333D01*
X216415714Y-89320714D01*
X216272857Y-89320714D01*
X216177619Y-89368333D01*
X216130000Y-89415952D01*
X216082380Y-89511190D01*
X216082380Y-89796904D01*
X216130000Y-89892142D01*
X216177619Y-89939761D01*
X216272857Y-89987380D01*
X216415714Y-89987380D01*
X215653809Y-89320714D02*
X215653809Y-89987380D01*
X215653809Y-89415952D02*
X215606190Y-89368333D01*
X215510952Y-89320714D01*
X215368095Y-89320714D01*
X215272857Y-89368333D01*
X215225238Y-89463571D01*
X215225238Y-89987380D01*
X214796666Y-89939761D02*
X214701428Y-89987380D01*
X214510952Y-89987380D01*
X214415714Y-89939761D01*
X214368095Y-89844523D01*
X214368095Y-89796904D01*
X214415714Y-89701666D01*
X214510952Y-89654047D01*
X214653809Y-89654047D01*
X214749047Y-89606428D01*
X214796666Y-89511190D01*
X214796666Y-89463571D01*
X214749047Y-89368333D01*
X214653809Y-89320714D01*
X214510952Y-89320714D01*
X214415714Y-89368333D01*
X214082380Y-89320714D02*
X213701428Y-89320714D01*
X213939523Y-88987380D02*
X213939523Y-89844523D01*
X213891904Y-89939761D01*
X213796666Y-89987380D01*
X213701428Y-89987380D01*
X212939523Y-89987380D02*
X212939523Y-89463571D01*
X212987142Y-89368333D01*
X213082380Y-89320714D01*
X213272857Y-89320714D01*
X213368095Y-89368333D01*
X212939523Y-89939761D02*
X213034761Y-89987380D01*
X213272857Y-89987380D01*
X213368095Y-89939761D01*
X213415714Y-89844523D01*
X213415714Y-89749285D01*
X213368095Y-89654047D01*
X213272857Y-89606428D01*
X213034761Y-89606428D01*
X212939523Y-89558809D01*
X212463333Y-89320714D02*
X212463333Y-89987380D01*
X212463333Y-89415952D02*
X212415714Y-89368333D01*
X212320476Y-89320714D01*
X212177619Y-89320714D01*
X212082380Y-89368333D01*
X212034761Y-89463571D01*
X212034761Y-89987380D01*
X211701428Y-89320714D02*
X211320476Y-89320714D01*
X211558571Y-88987380D02*
X211558571Y-89844523D01*
X211510952Y-89939761D01*
X211415714Y-89987380D01*
X211320476Y-89987380D01*
X210987142Y-89987380D02*
X210987142Y-89320714D01*
X210987142Y-88987380D02*
X211034761Y-89035000D01*
X210987142Y-89082619D01*
X210939523Y-89035000D01*
X210987142Y-88987380D01*
X210987142Y-89082619D01*
X210510952Y-89320714D02*
X210510952Y-89987380D01*
X210510952Y-89415952D02*
X210463333Y-89368333D01*
X210368095Y-89320714D01*
X210225238Y-89320714D01*
X210130000Y-89368333D01*
X210082380Y-89463571D01*
X210082380Y-89987380D01*
X209225238Y-89939761D02*
X209320476Y-89987380D01*
X209510952Y-89987380D01*
X209606190Y-89939761D01*
X209653809Y-89844523D01*
X209653809Y-89463571D01*
X209606190Y-89368333D01*
X209510952Y-89320714D01*
X209320476Y-89320714D01*
X209225238Y-89368333D01*
X209177619Y-89463571D01*
X209177619Y-89558809D01*
X209653809Y-89654047D01*
X208320476Y-89987380D02*
X208320476Y-89463571D01*
X208368095Y-89368333D01*
X208463333Y-89320714D01*
X208653809Y-89320714D01*
X208749047Y-89368333D01*
X208320476Y-89939761D02*
X208415714Y-89987380D01*
X208653809Y-89987380D01*
X208749047Y-89939761D01*
X208796666Y-89844523D01*
X208796666Y-89749285D01*
X208749047Y-89654047D01*
X208653809Y-89606428D01*
X208415714Y-89606428D01*
X208320476Y-89558809D01*
X207415714Y-89320714D02*
X207415714Y-89987380D01*
X207844285Y-89320714D02*
X207844285Y-89844523D01*
X207796666Y-89939761D01*
X207701428Y-89987380D01*
X207558571Y-89987380D01*
X207463333Y-89939761D01*
X207415714Y-89892142D01*
D11*
X240616428Y-87804761D02*
X240235476Y-87804761D01*
X240045000Y-87900000D01*
X239854523Y-88090476D01*
X239759285Y-88471428D01*
X239759285Y-89138095D01*
X239854523Y-89519047D01*
X240045000Y-89709523D01*
X240235476Y-89804761D01*
X240616428Y-89804761D01*
X240806904Y-89709523D01*
X240997380Y-89519047D01*
X241092619Y-89138095D01*
X241092619Y-88471428D01*
X240997380Y-88090476D01*
X240806904Y-87900000D01*
X240616428Y-87804761D01*
X239187857Y-88471428D02*
X238425952Y-88471428D01*
X238902142Y-89804761D02*
X238902142Y-88090476D01*
X238806904Y-87900000D01*
X238616428Y-87804761D01*
X238425952Y-87804761D01*
X238045000Y-88471428D02*
X237283095Y-88471428D01*
X237759285Y-89804761D02*
X237759285Y-88090476D01*
X237664047Y-87900000D01*
X237473571Y-87804761D01*
X237283095Y-87804761D01*
X236711666Y-89709523D02*
X236521190Y-89804761D01*
X236140238Y-89804761D01*
X235949761Y-89709523D01*
X235854523Y-89519047D01*
X235854523Y-89423809D01*
X235949761Y-89233333D01*
X236140238Y-89138095D01*
X236425952Y-89138095D01*
X236616428Y-89042857D01*
X236711666Y-88852380D01*
X236711666Y-88757142D01*
X236616428Y-88566666D01*
X236425952Y-88471428D01*
X236140238Y-88471428D01*
X235949761Y-88566666D01*
X234235476Y-89709523D02*
X234425952Y-89804761D01*
X234806904Y-89804761D01*
X234997380Y-89709523D01*
X235092619Y-89519047D01*
X235092619Y-88757142D01*
X234997380Y-88566666D01*
X234806904Y-88471428D01*
X234425952Y-88471428D01*
X234235476Y-88566666D01*
X234140238Y-88757142D01*
X234140238Y-88947619D01*
X235092619Y-89138095D01*
X233568809Y-88471428D02*
X232806904Y-88471428D01*
X233283095Y-87804761D02*
X233283095Y-89519047D01*
X233187857Y-89709523D01*
X232997380Y-89804761D01*
X232806904Y-89804761D01*
X232140238Y-89804761D02*
X232140238Y-87804761D01*
X231473571Y-89233333D01*
X230806904Y-87804761D01*
X230806904Y-89804761D01*
X230045000Y-87804761D02*
X228711666Y-89804761D01*
X228711666Y-87804761D02*
X230045000Y-89804761D01*
X227092619Y-88471428D02*
X227092619Y-89804761D01*
X227568809Y-87709523D02*
X228045000Y-89138095D01*
X226806904Y-89138095D01*
X226235476Y-87804761D02*
X224997380Y-87804761D01*
X225664047Y-88566666D01*
X225378333Y-88566666D01*
X225187857Y-88661904D01*
X225092619Y-88757142D01*
X224997380Y-88947619D01*
X224997380Y-89423809D01*
X225092619Y-89614285D01*
X225187857Y-89709523D01*
X225378333Y-89804761D01*
X225949761Y-89804761D01*
X226140238Y-89709523D01*
X226235476Y-89614285D01*
D12*
%TO.C,U39*%
X180672000Y-109990000D02*
X180372000Y-109990000D01*
X180372000Y-109990000D02*
X180372000Y-110290000D01*
%TO.C,U38*%
X133047000Y-109990000D02*
X132747000Y-109990000D01*
X132747000Y-109990000D02*
X132747000Y-110290000D01*
%TO.C,U24*%
X68785000Y-90940000D02*
X68485000Y-90940000D01*
X68485000Y-90940000D02*
X68485000Y-91240000D01*
%TO.C,U18*%
X159036000Y-71890000D02*
X159036000Y-72190000D01*
X159336000Y-71890000D02*
X159036000Y-71890000D01*
%TO.C,U13*%
X61673000Y-71890000D02*
X61373000Y-71890000D01*
X61373000Y-71890000D02*
X61373000Y-72190000D01*
%TO.C,U20*%
X197136000Y-71890000D02*
X197136000Y-72190000D01*
X197436000Y-71890000D02*
X197136000Y-71890000D01*
%TO.C,U21*%
X216186000Y-71890000D02*
X216186000Y-72190000D01*
X216486000Y-71890000D02*
X216186000Y-71890000D01*
%TO.C,U34*%
X268510000Y-90940000D02*
X268510000Y-91240000D01*
X268810000Y-90940000D02*
X268510000Y-90940000D01*
%TO.C,U43*%
X268510000Y-109990000D02*
X268510000Y-110290000D01*
X268810000Y-109990000D02*
X268510000Y-109990000D01*
%TO.C,U40*%
X211360000Y-109990000D02*
X211360000Y-110290000D01*
X211660000Y-109990000D02*
X211360000Y-109990000D01*
%TO.C,U35*%
X58960000Y-109990000D02*
X58960000Y-110290000D01*
X59260000Y-109990000D02*
X58960000Y-109990000D01*
%TO.C,U42*%
X249760000Y-109990000D02*
X249460000Y-109990000D01*
X249460000Y-109990000D02*
X249460000Y-110290000D01*
%TO.C,U23*%
X261698000Y-71890000D02*
X261398000Y-71890000D01*
X261398000Y-71890000D02*
X261398000Y-72190000D01*
%TO.C,J2*%
X86300000Y-88640000D02*
X85100000Y-88640000D01*
X92100000Y-96450000D02*
X90700000Y-96450000D01*
X92100000Y-87150000D02*
X92100000Y-96450000D01*
X90700000Y-87150000D02*
X92100000Y-87150000D01*
X86300000Y-96450000D02*
X87500000Y-96450000D01*
X86300000Y-94960000D02*
X86300000Y-96450000D01*
X86300000Y-87150000D02*
X87500000Y-87150000D01*
X86300000Y-88640000D02*
X86300000Y-87150000D01*
%TO.C,J1*%
X263047000Y-94960000D02*
X264247000Y-94960000D01*
X257247000Y-87150000D02*
X258647000Y-87150000D01*
X257247000Y-96450000D02*
X257247000Y-87150000D01*
X258647000Y-96450000D02*
X257247000Y-96450000D01*
X263047000Y-87150000D02*
X261847000Y-87150000D01*
X263047000Y-88640000D02*
X263047000Y-87150000D01*
X263047000Y-96450000D02*
X261847000Y-96450000D01*
X263047000Y-94960000D02*
X263047000Y-96450000D01*
%TO.C,C12*%
X275643748Y-67210000D02*
X276166252Y-67210000D01*
X275643748Y-68680000D02*
X276166252Y-68680000D01*
%TO.C,C11*%
X256593748Y-67210000D02*
X257116252Y-67210000D01*
X256593748Y-68680000D02*
X257116252Y-68680000D01*
%TO.C,C10*%
X237543748Y-67210000D02*
X238066252Y-67210000D01*
X237543748Y-68680000D02*
X238066252Y-68680000D01*
%TO.C,C9*%
X218493748Y-67210000D02*
X219016252Y-67210000D01*
X218493748Y-68680000D02*
X219016252Y-68680000D01*
%TO.C,C8*%
X199448748Y-67210000D02*
X199971252Y-67210000D01*
X199448748Y-68680000D02*
X199971252Y-68680000D01*
%TO.C,C7*%
X180398748Y-67210000D02*
X180921252Y-67210000D01*
X180398748Y-68680000D02*
X180921252Y-68680000D01*
%TO.C,C6*%
X161348748Y-67210000D02*
X161871252Y-67210000D01*
X161348748Y-68680000D02*
X161871252Y-68680000D01*
%TO.C,C5*%
X142298748Y-67210000D02*
X142821252Y-67210000D01*
X142298748Y-68680000D02*
X142821252Y-68680000D01*
%TO.C,C4*%
X123248748Y-67210000D02*
X123771252Y-67210000D01*
X123248748Y-68680000D02*
X123771252Y-68680000D01*
%TO.C,C3*%
X104198748Y-67210000D02*
X104721252Y-67210000D01*
X104198748Y-68680000D02*
X104721252Y-68680000D01*
%TO.C,C2*%
X85148748Y-67210000D02*
X85671252Y-67210000D01*
X85148748Y-68680000D02*
X85671252Y-68680000D01*
%TO.C,C1*%
X66098748Y-67210000D02*
X66621252Y-67210000D01*
X66098748Y-68680000D02*
X66621252Y-68680000D01*
%TO.C,U41*%
X230410000Y-109990000D02*
X230410000Y-110290000D01*
X230710000Y-109990000D02*
X230410000Y-109990000D01*
%TO.C,U37*%
X97060000Y-109990000D02*
X97060000Y-110290000D01*
X97360000Y-109990000D02*
X97060000Y-109990000D01*
%TO.C,U36*%
X78010000Y-109990000D02*
X78010000Y-110290000D01*
X78310000Y-109990000D02*
X78010000Y-109990000D01*
%TO.C,U33*%
X249460000Y-90940000D02*
X249460000Y-91240000D01*
X249760000Y-90940000D02*
X249460000Y-90940000D01*
%TO.C,U32*%
X230410000Y-90940000D02*
X230410000Y-91240000D01*
X230710000Y-90940000D02*
X230410000Y-90940000D01*
%TO.C,U31*%
X211360000Y-90940000D02*
X211360000Y-91240000D01*
X211660000Y-90940000D02*
X211360000Y-90940000D01*
%TO.C,U30*%
X192310000Y-90940000D02*
X192310000Y-91240000D01*
X192610000Y-90940000D02*
X192310000Y-90940000D01*
%TO.C,U29*%
X173260000Y-90940000D02*
X173260000Y-91240000D01*
X173560000Y-90940000D02*
X173260000Y-90940000D01*
%TO.C,U28*%
X154210000Y-90940000D02*
X154210000Y-91240000D01*
X154510000Y-90940000D02*
X154210000Y-90940000D01*
%TO.C,U27*%
X135160000Y-90940000D02*
X135160000Y-91240000D01*
X135460000Y-90940000D02*
X135160000Y-90940000D01*
%TO.C,U26*%
X116110000Y-90940000D02*
X116110000Y-91240000D01*
X116410000Y-90940000D02*
X116110000Y-90940000D01*
%TO.C,U25*%
X97060000Y-90940000D02*
X97060000Y-91240000D01*
X97360000Y-90940000D02*
X97060000Y-90940000D01*
%TO.C,U22*%
X235236000Y-71890000D02*
X235236000Y-72190000D01*
X235536000Y-71890000D02*
X235236000Y-71890000D01*
%TO.C,U19*%
X178086000Y-71890000D02*
X178086000Y-72190000D01*
X178386000Y-71890000D02*
X178086000Y-71890000D01*
%TO.C,U17*%
X139986000Y-71890000D02*
X139986000Y-72190000D01*
X140286000Y-71890000D02*
X139986000Y-71890000D01*
%TO.C,U16*%
X120936000Y-71890000D02*
X120936000Y-72190000D01*
X121236000Y-71890000D02*
X120936000Y-71890000D01*
%TO.C,U15*%
X101886000Y-71890000D02*
X101886000Y-72190000D01*
X102186000Y-71890000D02*
X101886000Y-71890000D01*
%TO.C,U14*%
X82836000Y-71890000D02*
X82836000Y-72190000D01*
X83136000Y-71890000D02*
X82836000Y-71890000D01*
%TO.C,U12*%
X268510000Y-52840000D02*
X268510000Y-53140000D01*
X268810000Y-52840000D02*
X268510000Y-52840000D01*
%TO.C,U11*%
X249460000Y-52840000D02*
X249460000Y-53140000D01*
X249760000Y-52840000D02*
X249460000Y-52840000D01*
%TO.C,U10*%
X230410000Y-52840000D02*
X230410000Y-53140000D01*
X230710000Y-52840000D02*
X230410000Y-52840000D01*
%TO.C,U9*%
X211360000Y-52840000D02*
X211360000Y-53140000D01*
X211660000Y-52840000D02*
X211360000Y-52840000D01*
%TO.C,U8*%
X192310000Y-52840000D02*
X192310000Y-53140000D01*
X192610000Y-52840000D02*
X192310000Y-52840000D01*
%TO.C,U7*%
X173260000Y-52840000D02*
X173260000Y-53140000D01*
X173560000Y-52840000D02*
X173260000Y-52840000D01*
%TO.C,U6*%
X154210000Y-52840000D02*
X154210000Y-53140000D01*
X154510000Y-52840000D02*
X154210000Y-52840000D01*
%TO.C,U5*%
X135160000Y-52840000D02*
X135160000Y-53140000D01*
X135460000Y-52840000D02*
X135160000Y-52840000D01*
%TO.C,U4*%
X116110000Y-52840000D02*
X116110000Y-53140000D01*
X116410000Y-52840000D02*
X116110000Y-52840000D01*
%TO.C,U3*%
X97060000Y-52840000D02*
X97060000Y-53140000D01*
X97360000Y-52840000D02*
X97060000Y-52840000D01*
%TO.C,U2*%
X78010000Y-52840000D02*
X78010000Y-53140000D01*
X78310000Y-52840000D02*
X78010000Y-52840000D01*
%TO.C,U1*%
X58960000Y-52840000D02*
X58960000Y-53140000D01*
X59260000Y-52840000D02*
X58960000Y-52840000D01*
%TO.C,D1*%
X67580000Y-55535000D02*
X69580000Y-55535000D01*
X69580000Y-55535000D02*
X69580000Y-59435000D01*
X67580000Y-55535000D02*
X67580000Y-59435000D01*
%TO.C,D13*%
X70120000Y-74585000D02*
X72120000Y-74585000D01*
X72120000Y-74585000D02*
X72120000Y-78485000D01*
X70120000Y-74585000D02*
X70120000Y-78485000D01*
%TO.C,D25*%
X105426000Y-93762000D02*
X105426000Y-97662000D01*
X107426000Y-93762000D02*
X107426000Y-97662000D01*
X105426000Y-93762000D02*
X107426000Y-93762000D01*
%TO.C,D37*%
X105680000Y-112940000D02*
X105680000Y-116840000D01*
X107680000Y-112940000D02*
X107680000Y-116840000D01*
X105680000Y-112940000D02*
X107680000Y-112940000D01*
%TO.C,D2*%
X86630000Y-55535000D02*
X88630000Y-55535000D01*
X88630000Y-55535000D02*
X88630000Y-59435000D01*
X86630000Y-55535000D02*
X86630000Y-59435000D01*
%TO.C,D14*%
X91710000Y-74713000D02*
X91710000Y-78613000D01*
X93710000Y-74713000D02*
X93710000Y-78613000D01*
X91710000Y-74713000D02*
X93710000Y-74713000D01*
%TO.C,D26*%
X124603000Y-93890000D02*
X126603000Y-93890000D01*
X126603000Y-93890000D02*
X126603000Y-97790000D01*
X124603000Y-93890000D02*
X124603000Y-97790000D01*
%TO.C,D38*%
X141113000Y-112305000D02*
X143113000Y-112305000D01*
X143113000Y-112305000D02*
X143113000Y-116205000D01*
X141113000Y-112305000D02*
X141113000Y-116205000D01*
%TO.C,D3*%
X105680000Y-55535000D02*
X105680000Y-59435000D01*
X107680000Y-55535000D02*
X107680000Y-59435000D01*
X105680000Y-55535000D02*
X107680000Y-55535000D01*
%TO.C,D15*%
X110760000Y-74840000D02*
X110760000Y-78740000D01*
X112760000Y-74840000D02*
X112760000Y-78740000D01*
X110760000Y-74840000D02*
X112760000Y-74840000D01*
%TO.C,D27*%
X143907000Y-93763000D02*
X143907000Y-97663000D01*
X145907000Y-93763000D02*
X145907000Y-97663000D01*
X143907000Y-93763000D02*
X145907000Y-93763000D01*
%TO.C,D39*%
X188738000Y-112432000D02*
X188738000Y-116332000D01*
X190738000Y-112432000D02*
X190738000Y-116332000D01*
X188738000Y-112432000D02*
X190738000Y-112432000D01*
%TO.C,D4*%
X124730000Y-55535000D02*
X126730000Y-55535000D01*
X126730000Y-55535000D02*
X126730000Y-59435000D01*
X124730000Y-55535000D02*
X124730000Y-59435000D01*
%TO.C,D16*%
X129810000Y-74585000D02*
X129810000Y-78485000D01*
X131810000Y-74585000D02*
X131810000Y-78485000D01*
X129810000Y-74585000D02*
X131810000Y-74585000D01*
%TO.C,D28*%
X162957000Y-93762000D02*
X164957000Y-93762000D01*
X164957000Y-93762000D02*
X164957000Y-97662000D01*
X162957000Y-93762000D02*
X162957000Y-97662000D01*
%TO.C,D40*%
X219853000Y-111670000D02*
X221853000Y-111670000D01*
X221853000Y-111670000D02*
X221853000Y-115570000D01*
X219853000Y-111670000D02*
X219853000Y-115570000D01*
%TO.C,D5*%
X143780000Y-55535000D02*
X145780000Y-55535000D01*
X145780000Y-55535000D02*
X145780000Y-59435000D01*
X143780000Y-55535000D02*
X143780000Y-59435000D01*
%TO.C,D17*%
X148860000Y-74585000D02*
X148860000Y-78485000D01*
X150860000Y-74585000D02*
X150860000Y-78485000D01*
X148860000Y-74585000D02*
X150860000Y-74585000D01*
%TO.C,D29*%
X182007000Y-93890000D02*
X182007000Y-97790000D01*
X184007000Y-93890000D02*
X184007000Y-97790000D01*
X182007000Y-93890000D02*
X184007000Y-93890000D01*
%TO.C,D41*%
X238776000Y-111797000D02*
X238776000Y-115697000D01*
X240776000Y-111797000D02*
X240776000Y-115697000D01*
X238776000Y-111797000D02*
X240776000Y-111797000D01*
%TO.C,D6*%
X162830000Y-55535000D02*
X164830000Y-55535000D01*
X164830000Y-55535000D02*
X164830000Y-59435000D01*
X162830000Y-55535000D02*
X162830000Y-59435000D01*
%TO.C,D18*%
X167910000Y-74585000D02*
X169910000Y-74585000D01*
X169910000Y-74585000D02*
X169910000Y-78485000D01*
X167910000Y-74585000D02*
X167910000Y-78485000D01*
%TO.C,D30*%
X201184000Y-93636000D02*
X203184000Y-93636000D01*
X203184000Y-93636000D02*
X203184000Y-97536000D01*
X201184000Y-93636000D02*
X201184000Y-97536000D01*
%TO.C,D42*%
X257953000Y-111924000D02*
X259953000Y-111924000D01*
X259953000Y-111924000D02*
X259953000Y-115824000D01*
X257953000Y-111924000D02*
X257953000Y-115824000D01*
%TO.C,D7*%
X181880000Y-55535000D02*
X183880000Y-55535000D01*
X183880000Y-55535000D02*
X183880000Y-59435000D01*
X181880000Y-55535000D02*
X181880000Y-59435000D01*
%TO.C,D19*%
X186960000Y-74585000D02*
X186960000Y-78485000D01*
X188960000Y-74585000D02*
X188960000Y-78485000D01*
X186960000Y-74585000D02*
X188960000Y-74585000D01*
%TO.C,D31*%
X219853000Y-93763000D02*
X219853000Y-97663000D01*
X221853000Y-93763000D02*
X221853000Y-97663000D01*
X219853000Y-93763000D02*
X221853000Y-93763000D01*
%TO.C,D8*%
X200930000Y-55535000D02*
X202930000Y-55535000D01*
X202930000Y-55535000D02*
X202930000Y-59435000D01*
X200930000Y-55535000D02*
X200930000Y-59435000D01*
%TO.C,D20*%
X206010000Y-74585000D02*
X208010000Y-74585000D01*
X208010000Y-74585000D02*
X208010000Y-78485000D01*
X206010000Y-74585000D02*
X206010000Y-78485000D01*
%TO.C,D32*%
X238903000Y-93001000D02*
X240903000Y-93001000D01*
X240903000Y-93001000D02*
X240903000Y-96901000D01*
X238903000Y-93001000D02*
X238903000Y-96901000D01*
%TO.C,D43*%
X277130000Y-111924000D02*
X277130000Y-115824000D01*
X279130000Y-111924000D02*
X279130000Y-115824000D01*
X277130000Y-111924000D02*
X279130000Y-111924000D01*
%TO.C,D9*%
X219980000Y-55535000D02*
X219980000Y-59435000D01*
X221980000Y-55535000D02*
X221980000Y-59435000D01*
X219980000Y-55535000D02*
X221980000Y-55535000D01*
%TO.C,D21*%
X225060000Y-74585000D02*
X225060000Y-78485000D01*
X227060000Y-74585000D02*
X227060000Y-78485000D01*
X225060000Y-74585000D02*
X227060000Y-74585000D01*
%TO.C,D33*%
X242141500Y-93039100D02*
X242141500Y-96939100D01*
X244141500Y-93039100D02*
X244141500Y-96939100D01*
X242141500Y-93039100D02*
X244141500Y-93039100D01*
%TO.C,D10*%
X239030000Y-55535000D02*
X239030000Y-59435000D01*
X241030000Y-55535000D02*
X241030000Y-59435000D01*
X239030000Y-55535000D02*
X241030000Y-55535000D01*
%TO.C,D22*%
X243602000Y-74585000D02*
X245602000Y-74585000D01*
X245602000Y-74585000D02*
X245602000Y-78485000D01*
X243602000Y-74585000D02*
X243602000Y-78485000D01*
%TO.C,D34*%
X277003000Y-93382000D02*
X279003000Y-93382000D01*
X279003000Y-93382000D02*
X279003000Y-97282000D01*
X277003000Y-93382000D02*
X277003000Y-97282000D01*
%TO.C,D11*%
X258080000Y-55535000D02*
X258080000Y-59435000D01*
X260080000Y-55535000D02*
X260080000Y-59435000D01*
X258080000Y-55535000D02*
X260080000Y-55535000D01*
%TO.C,D23*%
X269891000Y-74458000D02*
X269891000Y-78358000D01*
X271891000Y-74458000D02*
X271891000Y-78358000D01*
X269891000Y-74458000D02*
X271891000Y-74458000D01*
%TO.C,D35*%
X67580000Y-112432000D02*
X67580000Y-116332000D01*
X69580000Y-112432000D02*
X69580000Y-116332000D01*
X67580000Y-112432000D02*
X69580000Y-112432000D01*
%TO.C,D12*%
X277130000Y-55535000D02*
X279130000Y-55535000D01*
X279130000Y-55535000D02*
X279130000Y-59435000D01*
X277130000Y-55535000D02*
X277130000Y-59435000D01*
%TO.C,D24*%
X76978000Y-93381000D02*
X78978000Y-93381000D01*
X78978000Y-93381000D02*
X78978000Y-97281000D01*
X76978000Y-93381000D02*
X76978000Y-97281000D01*
%TO.C,D36*%
X86630000Y-113065000D02*
X88630000Y-113065000D01*
X88630000Y-113065000D02*
X88630000Y-116965000D01*
X86630000Y-113065000D02*
X86630000Y-116965000D01*
%TO.C,J2*%
D10*
X84752380Y-91466666D02*
X85466666Y-91466666D01*
X85609523Y-91419047D01*
X85704761Y-91323809D01*
X85752380Y-91180952D01*
X85752380Y-91085714D01*
X84847619Y-91895238D02*
X84800000Y-91942857D01*
X84752380Y-92038095D01*
X84752380Y-92276190D01*
X84800000Y-92371428D01*
X84847619Y-92419047D01*
X84942857Y-92466666D01*
X85038095Y-92466666D01*
X85180952Y-92419047D01*
X85752380Y-91847619D01*
X85752380Y-92466666D01*
%TO.C,C12*%
X276547857Y-69982142D02*
X276595476Y-70029761D01*
X276738333Y-70077380D01*
X276833571Y-70077380D01*
X276976428Y-70029761D01*
X277071666Y-69934523D01*
X277119285Y-69839285D01*
X277166904Y-69648809D01*
X277166904Y-69505952D01*
X277119285Y-69315476D01*
X277071666Y-69220238D01*
X276976428Y-69125000D01*
X276833571Y-69077380D01*
X276738333Y-69077380D01*
X276595476Y-69125000D01*
X276547857Y-69172619D01*
X275595476Y-70077380D02*
X276166904Y-70077380D01*
X275881190Y-70077380D02*
X275881190Y-69077380D01*
X275976428Y-69220238D01*
X276071666Y-69315476D01*
X276166904Y-69363095D01*
X275214523Y-69172619D02*
X275166904Y-69125000D01*
X275071666Y-69077380D01*
X274833571Y-69077380D01*
X274738333Y-69125000D01*
X274690714Y-69172619D01*
X274643095Y-69267857D01*
X274643095Y-69363095D01*
X274690714Y-69505952D01*
X275262142Y-70077380D01*
X274643095Y-70077380D01*
%TO.C,C11*%
X257497857Y-69982142D02*
X257545476Y-70029761D01*
X257688333Y-70077380D01*
X257783571Y-70077380D01*
X257926428Y-70029761D01*
X258021666Y-69934523D01*
X258069285Y-69839285D01*
X258116904Y-69648809D01*
X258116904Y-69505952D01*
X258069285Y-69315476D01*
X258021666Y-69220238D01*
X257926428Y-69125000D01*
X257783571Y-69077380D01*
X257688333Y-69077380D01*
X257545476Y-69125000D01*
X257497857Y-69172619D01*
X256545476Y-70077380D02*
X257116904Y-70077380D01*
X256831190Y-70077380D02*
X256831190Y-69077380D01*
X256926428Y-69220238D01*
X257021666Y-69315476D01*
X257116904Y-69363095D01*
X255593095Y-70077380D02*
X256164523Y-70077380D01*
X255878809Y-70077380D02*
X255878809Y-69077380D01*
X255974047Y-69220238D01*
X256069285Y-69315476D01*
X256164523Y-69363095D01*
%TO.C,C10*%
X238447857Y-69982142D02*
X238495476Y-70029761D01*
X238638333Y-70077380D01*
X238733571Y-70077380D01*
X238876428Y-70029761D01*
X238971666Y-69934523D01*
X239019285Y-69839285D01*
X239066904Y-69648809D01*
X239066904Y-69505952D01*
X239019285Y-69315476D01*
X238971666Y-69220238D01*
X238876428Y-69125000D01*
X238733571Y-69077380D01*
X238638333Y-69077380D01*
X238495476Y-69125000D01*
X238447857Y-69172619D01*
X237495476Y-70077380D02*
X238066904Y-70077380D01*
X237781190Y-70077380D02*
X237781190Y-69077380D01*
X237876428Y-69220238D01*
X237971666Y-69315476D01*
X238066904Y-69363095D01*
X236876428Y-69077380D02*
X236781190Y-69077380D01*
X236685952Y-69125000D01*
X236638333Y-69172619D01*
X236590714Y-69267857D01*
X236543095Y-69458333D01*
X236543095Y-69696428D01*
X236590714Y-69886904D01*
X236638333Y-69982142D01*
X236685952Y-70029761D01*
X236781190Y-70077380D01*
X236876428Y-70077380D01*
X236971666Y-70029761D01*
X237019285Y-69982142D01*
X237066904Y-69886904D01*
X237114523Y-69696428D01*
X237114523Y-69458333D01*
X237066904Y-69267857D01*
X237019285Y-69172619D01*
X236971666Y-69125000D01*
X236876428Y-69077380D01*
%TO.C,C9*%
X218921666Y-69982142D02*
X218969285Y-70029761D01*
X219112142Y-70077380D01*
X219207380Y-70077380D01*
X219350238Y-70029761D01*
X219445476Y-69934523D01*
X219493095Y-69839285D01*
X219540714Y-69648809D01*
X219540714Y-69505952D01*
X219493095Y-69315476D01*
X219445476Y-69220238D01*
X219350238Y-69125000D01*
X219207380Y-69077380D01*
X219112142Y-69077380D01*
X218969285Y-69125000D01*
X218921666Y-69172619D01*
X218445476Y-70077380D02*
X218255000Y-70077380D01*
X218159761Y-70029761D01*
X218112142Y-69982142D01*
X218016904Y-69839285D01*
X217969285Y-69648809D01*
X217969285Y-69267857D01*
X218016904Y-69172619D01*
X218064523Y-69125000D01*
X218159761Y-69077380D01*
X218350238Y-69077380D01*
X218445476Y-69125000D01*
X218493095Y-69172619D01*
X218540714Y-69267857D01*
X218540714Y-69505952D01*
X218493095Y-69601190D01*
X218445476Y-69648809D01*
X218350238Y-69696428D01*
X218159761Y-69696428D01*
X218064523Y-69648809D01*
X218016904Y-69601190D01*
X217969285Y-69505952D01*
%TO.C,C8*%
X199876666Y-69982142D02*
X199924285Y-70029761D01*
X200067142Y-70077380D01*
X200162380Y-70077380D01*
X200305238Y-70029761D01*
X200400476Y-69934523D01*
X200448095Y-69839285D01*
X200495714Y-69648809D01*
X200495714Y-69505952D01*
X200448095Y-69315476D01*
X200400476Y-69220238D01*
X200305238Y-69125000D01*
X200162380Y-69077380D01*
X200067142Y-69077380D01*
X199924285Y-69125000D01*
X199876666Y-69172619D01*
X199305238Y-69505952D02*
X199400476Y-69458333D01*
X199448095Y-69410714D01*
X199495714Y-69315476D01*
X199495714Y-69267857D01*
X199448095Y-69172619D01*
X199400476Y-69125000D01*
X199305238Y-69077380D01*
X199114761Y-69077380D01*
X199019523Y-69125000D01*
X198971904Y-69172619D01*
X198924285Y-69267857D01*
X198924285Y-69315476D01*
X198971904Y-69410714D01*
X199019523Y-69458333D01*
X199114761Y-69505952D01*
X199305238Y-69505952D01*
X199400476Y-69553571D01*
X199448095Y-69601190D01*
X199495714Y-69696428D01*
X199495714Y-69886904D01*
X199448095Y-69982142D01*
X199400476Y-70029761D01*
X199305238Y-70077380D01*
X199114761Y-70077380D01*
X199019523Y-70029761D01*
X198971904Y-69982142D01*
X198924285Y-69886904D01*
X198924285Y-69696428D01*
X198971904Y-69601190D01*
X199019523Y-69553571D01*
X199114761Y-69505952D01*
%TO.C,C7*%
X180826666Y-69982142D02*
X180874285Y-70029761D01*
X181017142Y-70077380D01*
X181112380Y-70077380D01*
X181255238Y-70029761D01*
X181350476Y-69934523D01*
X181398095Y-69839285D01*
X181445714Y-69648809D01*
X181445714Y-69505952D01*
X181398095Y-69315476D01*
X181350476Y-69220238D01*
X181255238Y-69125000D01*
X181112380Y-69077380D01*
X181017142Y-69077380D01*
X180874285Y-69125000D01*
X180826666Y-69172619D01*
X180493333Y-69077380D02*
X179826666Y-69077380D01*
X180255238Y-70077380D01*
%TO.C,C6*%
X161776666Y-69982142D02*
X161824285Y-70029761D01*
X161967142Y-70077380D01*
X162062380Y-70077380D01*
X162205238Y-70029761D01*
X162300476Y-69934523D01*
X162348095Y-69839285D01*
X162395714Y-69648809D01*
X162395714Y-69505952D01*
X162348095Y-69315476D01*
X162300476Y-69220238D01*
X162205238Y-69125000D01*
X162062380Y-69077380D01*
X161967142Y-69077380D01*
X161824285Y-69125000D01*
X161776666Y-69172619D01*
X160919523Y-69077380D02*
X161110000Y-69077380D01*
X161205238Y-69125000D01*
X161252857Y-69172619D01*
X161348095Y-69315476D01*
X161395714Y-69505952D01*
X161395714Y-69886904D01*
X161348095Y-69982142D01*
X161300476Y-70029761D01*
X161205238Y-70077380D01*
X161014761Y-70077380D01*
X160919523Y-70029761D01*
X160871904Y-69982142D01*
X160824285Y-69886904D01*
X160824285Y-69648809D01*
X160871904Y-69553571D01*
X160919523Y-69505952D01*
X161014761Y-69458333D01*
X161205238Y-69458333D01*
X161300476Y-69505952D01*
X161348095Y-69553571D01*
X161395714Y-69648809D01*
%TO.C,C5*%
X142726666Y-69982142D02*
X142774285Y-70029761D01*
X142917142Y-70077380D01*
X143012380Y-70077380D01*
X143155238Y-70029761D01*
X143250476Y-69934523D01*
X143298095Y-69839285D01*
X143345714Y-69648809D01*
X143345714Y-69505952D01*
X143298095Y-69315476D01*
X143250476Y-69220238D01*
X143155238Y-69125000D01*
X143012380Y-69077380D01*
X142917142Y-69077380D01*
X142774285Y-69125000D01*
X142726666Y-69172619D01*
X141821904Y-69077380D02*
X142298095Y-69077380D01*
X142345714Y-69553571D01*
X142298095Y-69505952D01*
X142202857Y-69458333D01*
X141964761Y-69458333D01*
X141869523Y-69505952D01*
X141821904Y-69553571D01*
X141774285Y-69648809D01*
X141774285Y-69886904D01*
X141821904Y-69982142D01*
X141869523Y-70029761D01*
X141964761Y-70077380D01*
X142202857Y-70077380D01*
X142298095Y-70029761D01*
X142345714Y-69982142D01*
%TO.C,C4*%
X123676666Y-69982142D02*
X123724285Y-70029761D01*
X123867142Y-70077380D01*
X123962380Y-70077380D01*
X124105238Y-70029761D01*
X124200476Y-69934523D01*
X124248095Y-69839285D01*
X124295714Y-69648809D01*
X124295714Y-69505952D01*
X124248095Y-69315476D01*
X124200476Y-69220238D01*
X124105238Y-69125000D01*
X123962380Y-69077380D01*
X123867142Y-69077380D01*
X123724285Y-69125000D01*
X123676666Y-69172619D01*
X122819523Y-69410714D02*
X122819523Y-70077380D01*
X123057619Y-69029761D02*
X123295714Y-69744047D01*
X122676666Y-69744047D01*
%TO.C,C3*%
X104626666Y-69982142D02*
X104674285Y-70029761D01*
X104817142Y-70077380D01*
X104912380Y-70077380D01*
X105055238Y-70029761D01*
X105150476Y-69934523D01*
X105198095Y-69839285D01*
X105245714Y-69648809D01*
X105245714Y-69505952D01*
X105198095Y-69315476D01*
X105150476Y-69220238D01*
X105055238Y-69125000D01*
X104912380Y-69077380D01*
X104817142Y-69077380D01*
X104674285Y-69125000D01*
X104626666Y-69172619D01*
X104293333Y-69077380D02*
X103674285Y-69077380D01*
X104007619Y-69458333D01*
X103864761Y-69458333D01*
X103769523Y-69505952D01*
X103721904Y-69553571D01*
X103674285Y-69648809D01*
X103674285Y-69886904D01*
X103721904Y-69982142D01*
X103769523Y-70029761D01*
X103864761Y-70077380D01*
X104150476Y-70077380D01*
X104245714Y-70029761D01*
X104293333Y-69982142D01*
%TO.C,C2*%
X85576666Y-69982142D02*
X85624285Y-70029761D01*
X85767142Y-70077380D01*
X85862380Y-70077380D01*
X86005238Y-70029761D01*
X86100476Y-69934523D01*
X86148095Y-69839285D01*
X86195714Y-69648809D01*
X86195714Y-69505952D01*
X86148095Y-69315476D01*
X86100476Y-69220238D01*
X86005238Y-69125000D01*
X85862380Y-69077380D01*
X85767142Y-69077380D01*
X85624285Y-69125000D01*
X85576666Y-69172619D01*
X85195714Y-69172619D02*
X85148095Y-69125000D01*
X85052857Y-69077380D01*
X84814761Y-69077380D01*
X84719523Y-69125000D01*
X84671904Y-69172619D01*
X84624285Y-69267857D01*
X84624285Y-69363095D01*
X84671904Y-69505952D01*
X85243333Y-70077380D01*
X84624285Y-70077380D01*
%TO.C,C1*%
X66526666Y-69982142D02*
X66574285Y-70029761D01*
X66717142Y-70077380D01*
X66812380Y-70077380D01*
X66955238Y-70029761D01*
X67050476Y-69934523D01*
X67098095Y-69839285D01*
X67145714Y-69648809D01*
X67145714Y-69505952D01*
X67098095Y-69315476D01*
X67050476Y-69220238D01*
X66955238Y-69125000D01*
X66812380Y-69077380D01*
X66717142Y-69077380D01*
X66574285Y-69125000D01*
X66526666Y-69172619D01*
X65574285Y-70077380D02*
X66145714Y-70077380D01*
X65860000Y-70077380D02*
X65860000Y-69077380D01*
X65955238Y-69220238D01*
X66050476Y-69315476D01*
X66145714Y-69363095D01*
%TO.C,D1*%
X67032380Y-57046904D02*
X66032380Y-57046904D01*
X66032380Y-57285000D01*
X66080000Y-57427857D01*
X66175238Y-57523095D01*
X66270476Y-57570714D01*
X66460952Y-57618333D01*
X66603809Y-57618333D01*
X66794285Y-57570714D01*
X66889523Y-57523095D01*
X66984761Y-57427857D01*
X67032380Y-57285000D01*
X67032380Y-57046904D01*
X67032380Y-58570714D02*
X67032380Y-57999285D01*
X67032380Y-58285000D02*
X66032380Y-58285000D01*
X66175238Y-58189761D01*
X66270476Y-58094523D01*
X66318095Y-57999285D01*
%TO.C,D13*%
X69572380Y-75620714D02*
X68572380Y-75620714D01*
X68572380Y-75858809D01*
X68620000Y-76001666D01*
X68715238Y-76096904D01*
X68810476Y-76144523D01*
X69000952Y-76192142D01*
X69143809Y-76192142D01*
X69334285Y-76144523D01*
X69429523Y-76096904D01*
X69524761Y-76001666D01*
X69572380Y-75858809D01*
X69572380Y-75620714D01*
X69572380Y-77144523D02*
X69572380Y-76573095D01*
X69572380Y-76858809D02*
X68572380Y-76858809D01*
X68715238Y-76763571D01*
X68810476Y-76668333D01*
X68858095Y-76573095D01*
X68572380Y-77477857D02*
X68572380Y-78096904D01*
X68953333Y-77763571D01*
X68953333Y-77906428D01*
X69000952Y-78001666D01*
X69048571Y-78049285D01*
X69143809Y-78096904D01*
X69381904Y-78096904D01*
X69477142Y-78049285D01*
X69524761Y-78001666D01*
X69572380Y-77906428D01*
X69572380Y-77620714D01*
X69524761Y-77525476D01*
X69477142Y-77477857D01*
%TO.C,D25*%
X104878380Y-94797714D02*
X103878380Y-94797714D01*
X103878380Y-95035809D01*
X103926000Y-95178666D01*
X104021238Y-95273904D01*
X104116476Y-95321523D01*
X104306952Y-95369142D01*
X104449809Y-95369142D01*
X104640285Y-95321523D01*
X104735523Y-95273904D01*
X104830761Y-95178666D01*
X104878380Y-95035809D01*
X104878380Y-94797714D01*
X103973619Y-95750095D02*
X103926000Y-95797714D01*
X103878380Y-95892952D01*
X103878380Y-96131047D01*
X103926000Y-96226285D01*
X103973619Y-96273904D01*
X104068857Y-96321523D01*
X104164095Y-96321523D01*
X104306952Y-96273904D01*
X104878380Y-95702476D01*
X104878380Y-96321523D01*
X103878380Y-97226285D02*
X103878380Y-96750095D01*
X104354571Y-96702476D01*
X104306952Y-96750095D01*
X104259333Y-96845333D01*
X104259333Y-97083428D01*
X104306952Y-97178666D01*
X104354571Y-97226285D01*
X104449809Y-97273904D01*
X104687904Y-97273904D01*
X104783142Y-97226285D01*
X104830761Y-97178666D01*
X104878380Y-97083428D01*
X104878380Y-96845333D01*
X104830761Y-96750095D01*
X104783142Y-96702476D01*
%TO.C,D37*%
X105132380Y-113975714D02*
X104132380Y-113975714D01*
X104132380Y-114213809D01*
X104180000Y-114356666D01*
X104275238Y-114451904D01*
X104370476Y-114499523D01*
X104560952Y-114547142D01*
X104703809Y-114547142D01*
X104894285Y-114499523D01*
X104989523Y-114451904D01*
X105084761Y-114356666D01*
X105132380Y-114213809D01*
X105132380Y-113975714D01*
X104132380Y-114880476D02*
X104132380Y-115499523D01*
X104513333Y-115166190D01*
X104513333Y-115309047D01*
X104560952Y-115404285D01*
X104608571Y-115451904D01*
X104703809Y-115499523D01*
X104941904Y-115499523D01*
X105037142Y-115451904D01*
X105084761Y-115404285D01*
X105132380Y-115309047D01*
X105132380Y-115023333D01*
X105084761Y-114928095D01*
X105037142Y-114880476D01*
X104132380Y-115832857D02*
X104132380Y-116499523D01*
X105132380Y-116070952D01*
%TO.C,D2*%
X86082380Y-57046904D02*
X85082380Y-57046904D01*
X85082380Y-57285000D01*
X85130000Y-57427857D01*
X85225238Y-57523095D01*
X85320476Y-57570714D01*
X85510952Y-57618333D01*
X85653809Y-57618333D01*
X85844285Y-57570714D01*
X85939523Y-57523095D01*
X86034761Y-57427857D01*
X86082380Y-57285000D01*
X86082380Y-57046904D01*
X85177619Y-57999285D02*
X85130000Y-58046904D01*
X85082380Y-58142142D01*
X85082380Y-58380238D01*
X85130000Y-58475476D01*
X85177619Y-58523095D01*
X85272857Y-58570714D01*
X85368095Y-58570714D01*
X85510952Y-58523095D01*
X86082380Y-57951666D01*
X86082380Y-58570714D01*
%TO.C,D14*%
X91162380Y-75748714D02*
X90162380Y-75748714D01*
X90162380Y-75986809D01*
X90210000Y-76129666D01*
X90305238Y-76224904D01*
X90400476Y-76272523D01*
X90590952Y-76320142D01*
X90733809Y-76320142D01*
X90924285Y-76272523D01*
X91019523Y-76224904D01*
X91114761Y-76129666D01*
X91162380Y-75986809D01*
X91162380Y-75748714D01*
X91162380Y-77272523D02*
X91162380Y-76701095D01*
X91162380Y-76986809D02*
X90162380Y-76986809D01*
X90305238Y-76891571D01*
X90400476Y-76796333D01*
X90448095Y-76701095D01*
X90495714Y-78129666D02*
X91162380Y-78129666D01*
X90114761Y-77891571D02*
X90829047Y-77653476D01*
X90829047Y-78272523D01*
%TO.C,D26*%
X124055380Y-94925714D02*
X123055380Y-94925714D01*
X123055380Y-95163809D01*
X123103000Y-95306666D01*
X123198238Y-95401904D01*
X123293476Y-95449523D01*
X123483952Y-95497142D01*
X123626809Y-95497142D01*
X123817285Y-95449523D01*
X123912523Y-95401904D01*
X124007761Y-95306666D01*
X124055380Y-95163809D01*
X124055380Y-94925714D01*
X123150619Y-95878095D02*
X123103000Y-95925714D01*
X123055380Y-96020952D01*
X123055380Y-96259047D01*
X123103000Y-96354285D01*
X123150619Y-96401904D01*
X123245857Y-96449523D01*
X123341095Y-96449523D01*
X123483952Y-96401904D01*
X124055380Y-95830476D01*
X124055380Y-96449523D01*
X123055380Y-97306666D02*
X123055380Y-97116190D01*
X123103000Y-97020952D01*
X123150619Y-96973333D01*
X123293476Y-96878095D01*
X123483952Y-96830476D01*
X123864904Y-96830476D01*
X123960142Y-96878095D01*
X124007761Y-96925714D01*
X124055380Y-97020952D01*
X124055380Y-97211428D01*
X124007761Y-97306666D01*
X123960142Y-97354285D01*
X123864904Y-97401904D01*
X123626809Y-97401904D01*
X123531571Y-97354285D01*
X123483952Y-97306666D01*
X123436333Y-97211428D01*
X123436333Y-97020952D01*
X123483952Y-96925714D01*
X123531571Y-96878095D01*
X123626809Y-96830476D01*
%TO.C,D38*%
X140565380Y-113340714D02*
X139565380Y-113340714D01*
X139565380Y-113578809D01*
X139613000Y-113721666D01*
X139708238Y-113816904D01*
X139803476Y-113864523D01*
X139993952Y-113912142D01*
X140136809Y-113912142D01*
X140327285Y-113864523D01*
X140422523Y-113816904D01*
X140517761Y-113721666D01*
X140565380Y-113578809D01*
X140565380Y-113340714D01*
X139565380Y-114245476D02*
X139565380Y-114864523D01*
X139946333Y-114531190D01*
X139946333Y-114674047D01*
X139993952Y-114769285D01*
X140041571Y-114816904D01*
X140136809Y-114864523D01*
X140374904Y-114864523D01*
X140470142Y-114816904D01*
X140517761Y-114769285D01*
X140565380Y-114674047D01*
X140565380Y-114388333D01*
X140517761Y-114293095D01*
X140470142Y-114245476D01*
X139993952Y-115435952D02*
X139946333Y-115340714D01*
X139898714Y-115293095D01*
X139803476Y-115245476D01*
X139755857Y-115245476D01*
X139660619Y-115293095D01*
X139613000Y-115340714D01*
X139565380Y-115435952D01*
X139565380Y-115626428D01*
X139613000Y-115721666D01*
X139660619Y-115769285D01*
X139755857Y-115816904D01*
X139803476Y-115816904D01*
X139898714Y-115769285D01*
X139946333Y-115721666D01*
X139993952Y-115626428D01*
X139993952Y-115435952D01*
X140041571Y-115340714D01*
X140089190Y-115293095D01*
X140184428Y-115245476D01*
X140374904Y-115245476D01*
X140470142Y-115293095D01*
X140517761Y-115340714D01*
X140565380Y-115435952D01*
X140565380Y-115626428D01*
X140517761Y-115721666D01*
X140470142Y-115769285D01*
X140374904Y-115816904D01*
X140184428Y-115816904D01*
X140089190Y-115769285D01*
X140041571Y-115721666D01*
X139993952Y-115626428D01*
%TO.C,D3*%
X105132380Y-57046904D02*
X104132380Y-57046904D01*
X104132380Y-57285000D01*
X104180000Y-57427857D01*
X104275238Y-57523095D01*
X104370476Y-57570714D01*
X104560952Y-57618333D01*
X104703809Y-57618333D01*
X104894285Y-57570714D01*
X104989523Y-57523095D01*
X105084761Y-57427857D01*
X105132380Y-57285000D01*
X105132380Y-57046904D01*
X104132380Y-57951666D02*
X104132380Y-58570714D01*
X104513333Y-58237380D01*
X104513333Y-58380238D01*
X104560952Y-58475476D01*
X104608571Y-58523095D01*
X104703809Y-58570714D01*
X104941904Y-58570714D01*
X105037142Y-58523095D01*
X105084761Y-58475476D01*
X105132380Y-58380238D01*
X105132380Y-58094523D01*
X105084761Y-57999285D01*
X105037142Y-57951666D01*
%TO.C,D15*%
X110212380Y-75875714D02*
X109212380Y-75875714D01*
X109212380Y-76113809D01*
X109260000Y-76256666D01*
X109355238Y-76351904D01*
X109450476Y-76399523D01*
X109640952Y-76447142D01*
X109783809Y-76447142D01*
X109974285Y-76399523D01*
X110069523Y-76351904D01*
X110164761Y-76256666D01*
X110212380Y-76113809D01*
X110212380Y-75875714D01*
X110212380Y-77399523D02*
X110212380Y-76828095D01*
X110212380Y-77113809D02*
X109212380Y-77113809D01*
X109355238Y-77018571D01*
X109450476Y-76923333D01*
X109498095Y-76828095D01*
X109212380Y-78304285D02*
X109212380Y-77828095D01*
X109688571Y-77780476D01*
X109640952Y-77828095D01*
X109593333Y-77923333D01*
X109593333Y-78161428D01*
X109640952Y-78256666D01*
X109688571Y-78304285D01*
X109783809Y-78351904D01*
X110021904Y-78351904D01*
X110117142Y-78304285D01*
X110164761Y-78256666D01*
X110212380Y-78161428D01*
X110212380Y-77923333D01*
X110164761Y-77828095D01*
X110117142Y-77780476D01*
%TO.C,D27*%
X143359380Y-94798714D02*
X142359380Y-94798714D01*
X142359380Y-95036809D01*
X142407000Y-95179666D01*
X142502238Y-95274904D01*
X142597476Y-95322523D01*
X142787952Y-95370142D01*
X142930809Y-95370142D01*
X143121285Y-95322523D01*
X143216523Y-95274904D01*
X143311761Y-95179666D01*
X143359380Y-95036809D01*
X143359380Y-94798714D01*
X142454619Y-95751095D02*
X142407000Y-95798714D01*
X142359380Y-95893952D01*
X142359380Y-96132047D01*
X142407000Y-96227285D01*
X142454619Y-96274904D01*
X142549857Y-96322523D01*
X142645095Y-96322523D01*
X142787952Y-96274904D01*
X143359380Y-95703476D01*
X143359380Y-96322523D01*
X142359380Y-96655857D02*
X142359380Y-97322523D01*
X143359380Y-96893952D01*
%TO.C,D39*%
X188190380Y-113467714D02*
X187190380Y-113467714D01*
X187190380Y-113705809D01*
X187238000Y-113848666D01*
X187333238Y-113943904D01*
X187428476Y-113991523D01*
X187618952Y-114039142D01*
X187761809Y-114039142D01*
X187952285Y-113991523D01*
X188047523Y-113943904D01*
X188142761Y-113848666D01*
X188190380Y-113705809D01*
X188190380Y-113467714D01*
X187190380Y-114372476D02*
X187190380Y-114991523D01*
X187571333Y-114658190D01*
X187571333Y-114801047D01*
X187618952Y-114896285D01*
X187666571Y-114943904D01*
X187761809Y-114991523D01*
X187999904Y-114991523D01*
X188095142Y-114943904D01*
X188142761Y-114896285D01*
X188190380Y-114801047D01*
X188190380Y-114515333D01*
X188142761Y-114420095D01*
X188095142Y-114372476D01*
X188190380Y-115467714D02*
X188190380Y-115658190D01*
X188142761Y-115753428D01*
X188095142Y-115801047D01*
X187952285Y-115896285D01*
X187761809Y-115943904D01*
X187380857Y-115943904D01*
X187285619Y-115896285D01*
X187238000Y-115848666D01*
X187190380Y-115753428D01*
X187190380Y-115562952D01*
X187238000Y-115467714D01*
X187285619Y-115420095D01*
X187380857Y-115372476D01*
X187618952Y-115372476D01*
X187714190Y-115420095D01*
X187761809Y-115467714D01*
X187809428Y-115562952D01*
X187809428Y-115753428D01*
X187761809Y-115848666D01*
X187714190Y-115896285D01*
X187618952Y-115943904D01*
%TO.C,D4*%
X124182380Y-57046904D02*
X123182380Y-57046904D01*
X123182380Y-57285000D01*
X123230000Y-57427857D01*
X123325238Y-57523095D01*
X123420476Y-57570714D01*
X123610952Y-57618333D01*
X123753809Y-57618333D01*
X123944285Y-57570714D01*
X124039523Y-57523095D01*
X124134761Y-57427857D01*
X124182380Y-57285000D01*
X124182380Y-57046904D01*
X123515714Y-58475476D02*
X124182380Y-58475476D01*
X123134761Y-58237380D02*
X123849047Y-57999285D01*
X123849047Y-58618333D01*
%TO.C,D16*%
X129262380Y-75620714D02*
X128262380Y-75620714D01*
X128262380Y-75858809D01*
X128310000Y-76001666D01*
X128405238Y-76096904D01*
X128500476Y-76144523D01*
X128690952Y-76192142D01*
X128833809Y-76192142D01*
X129024285Y-76144523D01*
X129119523Y-76096904D01*
X129214761Y-76001666D01*
X129262380Y-75858809D01*
X129262380Y-75620714D01*
X129262380Y-77144523D02*
X129262380Y-76573095D01*
X129262380Y-76858809D02*
X128262380Y-76858809D01*
X128405238Y-76763571D01*
X128500476Y-76668333D01*
X128548095Y-76573095D01*
X128262380Y-78001666D02*
X128262380Y-77811190D01*
X128310000Y-77715952D01*
X128357619Y-77668333D01*
X128500476Y-77573095D01*
X128690952Y-77525476D01*
X129071904Y-77525476D01*
X129167142Y-77573095D01*
X129214761Y-77620714D01*
X129262380Y-77715952D01*
X129262380Y-77906428D01*
X129214761Y-78001666D01*
X129167142Y-78049285D01*
X129071904Y-78096904D01*
X128833809Y-78096904D01*
X128738571Y-78049285D01*
X128690952Y-78001666D01*
X128643333Y-77906428D01*
X128643333Y-77715952D01*
X128690952Y-77620714D01*
X128738571Y-77573095D01*
X128833809Y-77525476D01*
%TO.C,D28*%
X162409380Y-94797714D02*
X161409380Y-94797714D01*
X161409380Y-95035809D01*
X161457000Y-95178666D01*
X161552238Y-95273904D01*
X161647476Y-95321523D01*
X161837952Y-95369142D01*
X161980809Y-95369142D01*
X162171285Y-95321523D01*
X162266523Y-95273904D01*
X162361761Y-95178666D01*
X162409380Y-95035809D01*
X162409380Y-94797714D01*
X161504619Y-95750095D02*
X161457000Y-95797714D01*
X161409380Y-95892952D01*
X161409380Y-96131047D01*
X161457000Y-96226285D01*
X161504619Y-96273904D01*
X161599857Y-96321523D01*
X161695095Y-96321523D01*
X161837952Y-96273904D01*
X162409380Y-95702476D01*
X162409380Y-96321523D01*
X161837952Y-96892952D02*
X161790333Y-96797714D01*
X161742714Y-96750095D01*
X161647476Y-96702476D01*
X161599857Y-96702476D01*
X161504619Y-96750095D01*
X161457000Y-96797714D01*
X161409380Y-96892952D01*
X161409380Y-97083428D01*
X161457000Y-97178666D01*
X161504619Y-97226285D01*
X161599857Y-97273904D01*
X161647476Y-97273904D01*
X161742714Y-97226285D01*
X161790333Y-97178666D01*
X161837952Y-97083428D01*
X161837952Y-96892952D01*
X161885571Y-96797714D01*
X161933190Y-96750095D01*
X162028428Y-96702476D01*
X162218904Y-96702476D01*
X162314142Y-96750095D01*
X162361761Y-96797714D01*
X162409380Y-96892952D01*
X162409380Y-97083428D01*
X162361761Y-97178666D01*
X162314142Y-97226285D01*
X162218904Y-97273904D01*
X162028428Y-97273904D01*
X161933190Y-97226285D01*
X161885571Y-97178666D01*
X161837952Y-97083428D01*
%TO.C,D40*%
X219305380Y-112705714D02*
X218305380Y-112705714D01*
X218305380Y-112943809D01*
X218353000Y-113086666D01*
X218448238Y-113181904D01*
X218543476Y-113229523D01*
X218733952Y-113277142D01*
X218876809Y-113277142D01*
X219067285Y-113229523D01*
X219162523Y-113181904D01*
X219257761Y-113086666D01*
X219305380Y-112943809D01*
X219305380Y-112705714D01*
X218638714Y-114134285D02*
X219305380Y-114134285D01*
X218257761Y-113896190D02*
X218972047Y-113658095D01*
X218972047Y-114277142D01*
X218305380Y-114848571D02*
X218305380Y-114943809D01*
X218353000Y-115039047D01*
X218400619Y-115086666D01*
X218495857Y-115134285D01*
X218686333Y-115181904D01*
X218924428Y-115181904D01*
X219114904Y-115134285D01*
X219210142Y-115086666D01*
X219257761Y-115039047D01*
X219305380Y-114943809D01*
X219305380Y-114848571D01*
X219257761Y-114753333D01*
X219210142Y-114705714D01*
X219114904Y-114658095D01*
X218924428Y-114610476D01*
X218686333Y-114610476D01*
X218495857Y-114658095D01*
X218400619Y-114705714D01*
X218353000Y-114753333D01*
X218305380Y-114848571D01*
%TO.C,D5*%
X143232380Y-57046904D02*
X142232380Y-57046904D01*
X142232380Y-57285000D01*
X142280000Y-57427857D01*
X142375238Y-57523095D01*
X142470476Y-57570714D01*
X142660952Y-57618333D01*
X142803809Y-57618333D01*
X142994285Y-57570714D01*
X143089523Y-57523095D01*
X143184761Y-57427857D01*
X143232380Y-57285000D01*
X143232380Y-57046904D01*
X142232380Y-58523095D02*
X142232380Y-58046904D01*
X142708571Y-57999285D01*
X142660952Y-58046904D01*
X142613333Y-58142142D01*
X142613333Y-58380238D01*
X142660952Y-58475476D01*
X142708571Y-58523095D01*
X142803809Y-58570714D01*
X143041904Y-58570714D01*
X143137142Y-58523095D01*
X143184761Y-58475476D01*
X143232380Y-58380238D01*
X143232380Y-58142142D01*
X143184761Y-58046904D01*
X143137142Y-57999285D01*
%TO.C,D17*%
X148312380Y-75620714D02*
X147312380Y-75620714D01*
X147312380Y-75858809D01*
X147360000Y-76001666D01*
X147455238Y-76096904D01*
X147550476Y-76144523D01*
X147740952Y-76192142D01*
X147883809Y-76192142D01*
X148074285Y-76144523D01*
X148169523Y-76096904D01*
X148264761Y-76001666D01*
X148312380Y-75858809D01*
X148312380Y-75620714D01*
X148312380Y-77144523D02*
X148312380Y-76573095D01*
X148312380Y-76858809D02*
X147312380Y-76858809D01*
X147455238Y-76763571D01*
X147550476Y-76668333D01*
X147598095Y-76573095D01*
X147312380Y-77477857D02*
X147312380Y-78144523D01*
X148312380Y-77715952D01*
%TO.C,D29*%
X181459380Y-94925714D02*
X180459380Y-94925714D01*
X180459380Y-95163809D01*
X180507000Y-95306666D01*
X180602238Y-95401904D01*
X180697476Y-95449523D01*
X180887952Y-95497142D01*
X181030809Y-95497142D01*
X181221285Y-95449523D01*
X181316523Y-95401904D01*
X181411761Y-95306666D01*
X181459380Y-95163809D01*
X181459380Y-94925714D01*
X180554619Y-95878095D02*
X180507000Y-95925714D01*
X180459380Y-96020952D01*
X180459380Y-96259047D01*
X180507000Y-96354285D01*
X180554619Y-96401904D01*
X180649857Y-96449523D01*
X180745095Y-96449523D01*
X180887952Y-96401904D01*
X181459380Y-95830476D01*
X181459380Y-96449523D01*
X181459380Y-96925714D02*
X181459380Y-97116190D01*
X181411761Y-97211428D01*
X181364142Y-97259047D01*
X181221285Y-97354285D01*
X181030809Y-97401904D01*
X180649857Y-97401904D01*
X180554619Y-97354285D01*
X180507000Y-97306666D01*
X180459380Y-97211428D01*
X180459380Y-97020952D01*
X180507000Y-96925714D01*
X180554619Y-96878095D01*
X180649857Y-96830476D01*
X180887952Y-96830476D01*
X180983190Y-96878095D01*
X181030809Y-96925714D01*
X181078428Y-97020952D01*
X181078428Y-97211428D01*
X181030809Y-97306666D01*
X180983190Y-97354285D01*
X180887952Y-97401904D01*
%TO.C,D41*%
X238228380Y-112832714D02*
X237228380Y-112832714D01*
X237228380Y-113070809D01*
X237276000Y-113213666D01*
X237371238Y-113308904D01*
X237466476Y-113356523D01*
X237656952Y-113404142D01*
X237799809Y-113404142D01*
X237990285Y-113356523D01*
X238085523Y-113308904D01*
X238180761Y-113213666D01*
X238228380Y-113070809D01*
X238228380Y-112832714D01*
X237561714Y-114261285D02*
X238228380Y-114261285D01*
X237180761Y-114023190D02*
X237895047Y-113785095D01*
X237895047Y-114404142D01*
X238228380Y-115308904D02*
X238228380Y-114737476D01*
X238228380Y-115023190D02*
X237228380Y-115023190D01*
X237371238Y-114927952D01*
X237466476Y-114832714D01*
X237514095Y-114737476D01*
%TO.C,D6*%
X162282380Y-57046904D02*
X161282380Y-57046904D01*
X161282380Y-57285000D01*
X161330000Y-57427857D01*
X161425238Y-57523095D01*
X161520476Y-57570714D01*
X161710952Y-57618333D01*
X161853809Y-57618333D01*
X162044285Y-57570714D01*
X162139523Y-57523095D01*
X162234761Y-57427857D01*
X162282380Y-57285000D01*
X162282380Y-57046904D01*
X161282380Y-58475476D02*
X161282380Y-58285000D01*
X161330000Y-58189761D01*
X161377619Y-58142142D01*
X161520476Y-58046904D01*
X161710952Y-57999285D01*
X162091904Y-57999285D01*
X162187142Y-58046904D01*
X162234761Y-58094523D01*
X162282380Y-58189761D01*
X162282380Y-58380238D01*
X162234761Y-58475476D01*
X162187142Y-58523095D01*
X162091904Y-58570714D01*
X161853809Y-58570714D01*
X161758571Y-58523095D01*
X161710952Y-58475476D01*
X161663333Y-58380238D01*
X161663333Y-58189761D01*
X161710952Y-58094523D01*
X161758571Y-58046904D01*
X161853809Y-57999285D01*
%TO.C,D18*%
X167362380Y-75620714D02*
X166362380Y-75620714D01*
X166362380Y-75858809D01*
X166410000Y-76001666D01*
X166505238Y-76096904D01*
X166600476Y-76144523D01*
X166790952Y-76192142D01*
X166933809Y-76192142D01*
X167124285Y-76144523D01*
X167219523Y-76096904D01*
X167314761Y-76001666D01*
X167362380Y-75858809D01*
X167362380Y-75620714D01*
X167362380Y-77144523D02*
X167362380Y-76573095D01*
X167362380Y-76858809D02*
X166362380Y-76858809D01*
X166505238Y-76763571D01*
X166600476Y-76668333D01*
X166648095Y-76573095D01*
X166790952Y-77715952D02*
X166743333Y-77620714D01*
X166695714Y-77573095D01*
X166600476Y-77525476D01*
X166552857Y-77525476D01*
X166457619Y-77573095D01*
X166410000Y-77620714D01*
X166362380Y-77715952D01*
X166362380Y-77906428D01*
X166410000Y-78001666D01*
X166457619Y-78049285D01*
X166552857Y-78096904D01*
X166600476Y-78096904D01*
X166695714Y-78049285D01*
X166743333Y-78001666D01*
X166790952Y-77906428D01*
X166790952Y-77715952D01*
X166838571Y-77620714D01*
X166886190Y-77573095D01*
X166981428Y-77525476D01*
X167171904Y-77525476D01*
X167267142Y-77573095D01*
X167314761Y-77620714D01*
X167362380Y-77715952D01*
X167362380Y-77906428D01*
X167314761Y-78001666D01*
X167267142Y-78049285D01*
X167171904Y-78096904D01*
X166981428Y-78096904D01*
X166886190Y-78049285D01*
X166838571Y-78001666D01*
X166790952Y-77906428D01*
%TO.C,D30*%
X200636380Y-94671714D02*
X199636380Y-94671714D01*
X199636380Y-94909809D01*
X199684000Y-95052666D01*
X199779238Y-95147904D01*
X199874476Y-95195523D01*
X200064952Y-95243142D01*
X200207809Y-95243142D01*
X200398285Y-95195523D01*
X200493523Y-95147904D01*
X200588761Y-95052666D01*
X200636380Y-94909809D01*
X200636380Y-94671714D01*
X199636380Y-95576476D02*
X199636380Y-96195523D01*
X200017333Y-95862190D01*
X200017333Y-96005047D01*
X200064952Y-96100285D01*
X200112571Y-96147904D01*
X200207809Y-96195523D01*
X200445904Y-96195523D01*
X200541142Y-96147904D01*
X200588761Y-96100285D01*
X200636380Y-96005047D01*
X200636380Y-95719333D01*
X200588761Y-95624095D01*
X200541142Y-95576476D01*
X199636380Y-96814571D02*
X199636380Y-96909809D01*
X199684000Y-97005047D01*
X199731619Y-97052666D01*
X199826857Y-97100285D01*
X200017333Y-97147904D01*
X200255428Y-97147904D01*
X200445904Y-97100285D01*
X200541142Y-97052666D01*
X200588761Y-97005047D01*
X200636380Y-96909809D01*
X200636380Y-96814571D01*
X200588761Y-96719333D01*
X200541142Y-96671714D01*
X200445904Y-96624095D01*
X200255428Y-96576476D01*
X200017333Y-96576476D01*
X199826857Y-96624095D01*
X199731619Y-96671714D01*
X199684000Y-96719333D01*
X199636380Y-96814571D01*
%TO.C,D42*%
X257405380Y-112959714D02*
X256405380Y-112959714D01*
X256405380Y-113197809D01*
X256453000Y-113340666D01*
X256548238Y-113435904D01*
X256643476Y-113483523D01*
X256833952Y-113531142D01*
X256976809Y-113531142D01*
X257167285Y-113483523D01*
X257262523Y-113435904D01*
X257357761Y-113340666D01*
X257405380Y-113197809D01*
X257405380Y-112959714D01*
X256738714Y-114388285D02*
X257405380Y-114388285D01*
X256357761Y-114150190D02*
X257072047Y-113912095D01*
X257072047Y-114531142D01*
X256500619Y-114864476D02*
X256453000Y-114912095D01*
X256405380Y-115007333D01*
X256405380Y-115245428D01*
X256453000Y-115340666D01*
X256500619Y-115388285D01*
X256595857Y-115435904D01*
X256691095Y-115435904D01*
X256833952Y-115388285D01*
X257405380Y-114816857D01*
X257405380Y-115435904D01*
%TO.C,D7*%
X181332380Y-57046904D02*
X180332380Y-57046904D01*
X180332380Y-57285000D01*
X180380000Y-57427857D01*
X180475238Y-57523095D01*
X180570476Y-57570714D01*
X180760952Y-57618333D01*
X180903809Y-57618333D01*
X181094285Y-57570714D01*
X181189523Y-57523095D01*
X181284761Y-57427857D01*
X181332380Y-57285000D01*
X181332380Y-57046904D01*
X180332380Y-57951666D02*
X180332380Y-58618333D01*
X181332380Y-58189761D01*
%TO.C,D19*%
X186412380Y-75620714D02*
X185412380Y-75620714D01*
X185412380Y-75858809D01*
X185460000Y-76001666D01*
X185555238Y-76096904D01*
X185650476Y-76144523D01*
X185840952Y-76192142D01*
X185983809Y-76192142D01*
X186174285Y-76144523D01*
X186269523Y-76096904D01*
X186364761Y-76001666D01*
X186412380Y-75858809D01*
X186412380Y-75620714D01*
X186412380Y-77144523D02*
X186412380Y-76573095D01*
X186412380Y-76858809D02*
X185412380Y-76858809D01*
X185555238Y-76763571D01*
X185650476Y-76668333D01*
X185698095Y-76573095D01*
X186412380Y-77620714D02*
X186412380Y-77811190D01*
X186364761Y-77906428D01*
X186317142Y-77954047D01*
X186174285Y-78049285D01*
X185983809Y-78096904D01*
X185602857Y-78096904D01*
X185507619Y-78049285D01*
X185460000Y-78001666D01*
X185412380Y-77906428D01*
X185412380Y-77715952D01*
X185460000Y-77620714D01*
X185507619Y-77573095D01*
X185602857Y-77525476D01*
X185840952Y-77525476D01*
X185936190Y-77573095D01*
X185983809Y-77620714D01*
X186031428Y-77715952D01*
X186031428Y-77906428D01*
X185983809Y-78001666D01*
X185936190Y-78049285D01*
X185840952Y-78096904D01*
%TO.C,D31*%
X219305380Y-94798714D02*
X218305380Y-94798714D01*
X218305380Y-95036809D01*
X218353000Y-95179666D01*
X218448238Y-95274904D01*
X218543476Y-95322523D01*
X218733952Y-95370142D01*
X218876809Y-95370142D01*
X219067285Y-95322523D01*
X219162523Y-95274904D01*
X219257761Y-95179666D01*
X219305380Y-95036809D01*
X219305380Y-94798714D01*
X218305380Y-95703476D02*
X218305380Y-96322523D01*
X218686333Y-95989190D01*
X218686333Y-96132047D01*
X218733952Y-96227285D01*
X218781571Y-96274904D01*
X218876809Y-96322523D01*
X219114904Y-96322523D01*
X219210142Y-96274904D01*
X219257761Y-96227285D01*
X219305380Y-96132047D01*
X219305380Y-95846333D01*
X219257761Y-95751095D01*
X219210142Y-95703476D01*
X219305380Y-97274904D02*
X219305380Y-96703476D01*
X219305380Y-96989190D02*
X218305380Y-96989190D01*
X218448238Y-96893952D01*
X218543476Y-96798714D01*
X218591095Y-96703476D01*
%TO.C,D8*%
X200382380Y-57046904D02*
X199382380Y-57046904D01*
X199382380Y-57285000D01*
X199430000Y-57427857D01*
X199525238Y-57523095D01*
X199620476Y-57570714D01*
X199810952Y-57618333D01*
X199953809Y-57618333D01*
X200144285Y-57570714D01*
X200239523Y-57523095D01*
X200334761Y-57427857D01*
X200382380Y-57285000D01*
X200382380Y-57046904D01*
X199810952Y-58189761D02*
X199763333Y-58094523D01*
X199715714Y-58046904D01*
X199620476Y-57999285D01*
X199572857Y-57999285D01*
X199477619Y-58046904D01*
X199430000Y-58094523D01*
X199382380Y-58189761D01*
X199382380Y-58380238D01*
X199430000Y-58475476D01*
X199477619Y-58523095D01*
X199572857Y-58570714D01*
X199620476Y-58570714D01*
X199715714Y-58523095D01*
X199763333Y-58475476D01*
X199810952Y-58380238D01*
X199810952Y-58189761D01*
X199858571Y-58094523D01*
X199906190Y-58046904D01*
X200001428Y-57999285D01*
X200191904Y-57999285D01*
X200287142Y-58046904D01*
X200334761Y-58094523D01*
X200382380Y-58189761D01*
X200382380Y-58380238D01*
X200334761Y-58475476D01*
X200287142Y-58523095D01*
X200191904Y-58570714D01*
X200001428Y-58570714D01*
X199906190Y-58523095D01*
X199858571Y-58475476D01*
X199810952Y-58380238D01*
%TO.C,D20*%
X205462380Y-75620714D02*
X204462380Y-75620714D01*
X204462380Y-75858809D01*
X204510000Y-76001666D01*
X204605238Y-76096904D01*
X204700476Y-76144523D01*
X204890952Y-76192142D01*
X205033809Y-76192142D01*
X205224285Y-76144523D01*
X205319523Y-76096904D01*
X205414761Y-76001666D01*
X205462380Y-75858809D01*
X205462380Y-75620714D01*
X204557619Y-76573095D02*
X204510000Y-76620714D01*
X204462380Y-76715952D01*
X204462380Y-76954047D01*
X204510000Y-77049285D01*
X204557619Y-77096904D01*
X204652857Y-77144523D01*
X204748095Y-77144523D01*
X204890952Y-77096904D01*
X205462380Y-76525476D01*
X205462380Y-77144523D01*
X204462380Y-77763571D02*
X204462380Y-77858809D01*
X204510000Y-77954047D01*
X204557619Y-78001666D01*
X204652857Y-78049285D01*
X204843333Y-78096904D01*
X205081428Y-78096904D01*
X205271904Y-78049285D01*
X205367142Y-78001666D01*
X205414761Y-77954047D01*
X205462380Y-77858809D01*
X205462380Y-77763571D01*
X205414761Y-77668333D01*
X205367142Y-77620714D01*
X205271904Y-77573095D01*
X205081428Y-77525476D01*
X204843333Y-77525476D01*
X204652857Y-77573095D01*
X204557619Y-77620714D01*
X204510000Y-77668333D01*
X204462380Y-77763571D01*
%TO.C,D32*%
X238355380Y-94036714D02*
X237355380Y-94036714D01*
X237355380Y-94274809D01*
X237403000Y-94417666D01*
X237498238Y-94512904D01*
X237593476Y-94560523D01*
X237783952Y-94608142D01*
X237926809Y-94608142D01*
X238117285Y-94560523D01*
X238212523Y-94512904D01*
X238307761Y-94417666D01*
X238355380Y-94274809D01*
X238355380Y-94036714D01*
X237355380Y-94941476D02*
X237355380Y-95560523D01*
X237736333Y-95227190D01*
X237736333Y-95370047D01*
X237783952Y-95465285D01*
X237831571Y-95512904D01*
X237926809Y-95560523D01*
X238164904Y-95560523D01*
X238260142Y-95512904D01*
X238307761Y-95465285D01*
X238355380Y-95370047D01*
X238355380Y-95084333D01*
X238307761Y-94989095D01*
X238260142Y-94941476D01*
X237450619Y-95941476D02*
X237403000Y-95989095D01*
X237355380Y-96084333D01*
X237355380Y-96322428D01*
X237403000Y-96417666D01*
X237450619Y-96465285D01*
X237545857Y-96512904D01*
X237641095Y-96512904D01*
X237783952Y-96465285D01*
X238355380Y-95893857D01*
X238355380Y-96512904D01*
%TO.C,D43*%
X276582380Y-112959714D02*
X275582380Y-112959714D01*
X275582380Y-113197809D01*
X275630000Y-113340666D01*
X275725238Y-113435904D01*
X275820476Y-113483523D01*
X276010952Y-113531142D01*
X276153809Y-113531142D01*
X276344285Y-113483523D01*
X276439523Y-113435904D01*
X276534761Y-113340666D01*
X276582380Y-113197809D01*
X276582380Y-112959714D01*
X275915714Y-114388285D02*
X276582380Y-114388285D01*
X275534761Y-114150190D02*
X276249047Y-113912095D01*
X276249047Y-114531142D01*
X275582380Y-114816857D02*
X275582380Y-115435904D01*
X275963333Y-115102571D01*
X275963333Y-115245428D01*
X276010952Y-115340666D01*
X276058571Y-115388285D01*
X276153809Y-115435904D01*
X276391904Y-115435904D01*
X276487142Y-115388285D01*
X276534761Y-115340666D01*
X276582380Y-115245428D01*
X276582380Y-114959714D01*
X276534761Y-114864476D01*
X276487142Y-114816857D01*
%TO.C,D9*%
X219432380Y-57046904D02*
X218432380Y-57046904D01*
X218432380Y-57285000D01*
X218480000Y-57427857D01*
X218575238Y-57523095D01*
X218670476Y-57570714D01*
X218860952Y-57618333D01*
X219003809Y-57618333D01*
X219194285Y-57570714D01*
X219289523Y-57523095D01*
X219384761Y-57427857D01*
X219432380Y-57285000D01*
X219432380Y-57046904D01*
X219432380Y-58094523D02*
X219432380Y-58285000D01*
X219384761Y-58380238D01*
X219337142Y-58427857D01*
X219194285Y-58523095D01*
X219003809Y-58570714D01*
X218622857Y-58570714D01*
X218527619Y-58523095D01*
X218480000Y-58475476D01*
X218432380Y-58380238D01*
X218432380Y-58189761D01*
X218480000Y-58094523D01*
X218527619Y-58046904D01*
X218622857Y-57999285D01*
X218860952Y-57999285D01*
X218956190Y-58046904D01*
X219003809Y-58094523D01*
X219051428Y-58189761D01*
X219051428Y-58380238D01*
X219003809Y-58475476D01*
X218956190Y-58523095D01*
X218860952Y-58570714D01*
%TO.C,D21*%
X224512380Y-75620714D02*
X223512380Y-75620714D01*
X223512380Y-75858809D01*
X223560000Y-76001666D01*
X223655238Y-76096904D01*
X223750476Y-76144523D01*
X223940952Y-76192142D01*
X224083809Y-76192142D01*
X224274285Y-76144523D01*
X224369523Y-76096904D01*
X224464761Y-76001666D01*
X224512380Y-75858809D01*
X224512380Y-75620714D01*
X223607619Y-76573095D02*
X223560000Y-76620714D01*
X223512380Y-76715952D01*
X223512380Y-76954047D01*
X223560000Y-77049285D01*
X223607619Y-77096904D01*
X223702857Y-77144523D01*
X223798095Y-77144523D01*
X223940952Y-77096904D01*
X224512380Y-76525476D01*
X224512380Y-77144523D01*
X224512380Y-78096904D02*
X224512380Y-77525476D01*
X224512380Y-77811190D02*
X223512380Y-77811190D01*
X223655238Y-77715952D01*
X223750476Y-77620714D01*
X223798095Y-77525476D01*
%TO.C,D33*%
X241593880Y-94074814D02*
X240593880Y-94074814D01*
X240593880Y-94312909D01*
X240641500Y-94455766D01*
X240736738Y-94551004D01*
X240831976Y-94598623D01*
X241022452Y-94646242D01*
X241165309Y-94646242D01*
X241355785Y-94598623D01*
X241451023Y-94551004D01*
X241546261Y-94455766D01*
X241593880Y-94312909D01*
X241593880Y-94074814D01*
X240593880Y-94979576D02*
X240593880Y-95598623D01*
X240974833Y-95265290D01*
X240974833Y-95408147D01*
X241022452Y-95503385D01*
X241070071Y-95551004D01*
X241165309Y-95598623D01*
X241403404Y-95598623D01*
X241498642Y-95551004D01*
X241546261Y-95503385D01*
X241593880Y-95408147D01*
X241593880Y-95122433D01*
X241546261Y-95027195D01*
X241498642Y-94979576D01*
X240593880Y-95931957D02*
X240593880Y-96551004D01*
X240974833Y-96217671D01*
X240974833Y-96360528D01*
X241022452Y-96455766D01*
X241070071Y-96503385D01*
X241165309Y-96551004D01*
X241403404Y-96551004D01*
X241498642Y-96503385D01*
X241546261Y-96455766D01*
X241593880Y-96360528D01*
X241593880Y-96074814D01*
X241546261Y-95979576D01*
X241498642Y-95931957D01*
%TO.C,D10*%
X238482380Y-56570714D02*
X237482380Y-56570714D01*
X237482380Y-56808809D01*
X237530000Y-56951666D01*
X237625238Y-57046904D01*
X237720476Y-57094523D01*
X237910952Y-57142142D01*
X238053809Y-57142142D01*
X238244285Y-57094523D01*
X238339523Y-57046904D01*
X238434761Y-56951666D01*
X238482380Y-56808809D01*
X238482380Y-56570714D01*
X238482380Y-58094523D02*
X238482380Y-57523095D01*
X238482380Y-57808809D02*
X237482380Y-57808809D01*
X237625238Y-57713571D01*
X237720476Y-57618333D01*
X237768095Y-57523095D01*
X237482380Y-58713571D02*
X237482380Y-58808809D01*
X237530000Y-58904047D01*
X237577619Y-58951666D01*
X237672857Y-58999285D01*
X237863333Y-59046904D01*
X238101428Y-59046904D01*
X238291904Y-58999285D01*
X238387142Y-58951666D01*
X238434761Y-58904047D01*
X238482380Y-58808809D01*
X238482380Y-58713571D01*
X238434761Y-58618333D01*
X238387142Y-58570714D01*
X238291904Y-58523095D01*
X238101428Y-58475476D01*
X237863333Y-58475476D01*
X237672857Y-58523095D01*
X237577619Y-58570714D01*
X237530000Y-58618333D01*
X237482380Y-58713571D01*
%TO.C,D22*%
X243054380Y-75620714D02*
X242054380Y-75620714D01*
X242054380Y-75858809D01*
X242102000Y-76001666D01*
X242197238Y-76096904D01*
X242292476Y-76144523D01*
X242482952Y-76192142D01*
X242625809Y-76192142D01*
X242816285Y-76144523D01*
X242911523Y-76096904D01*
X243006761Y-76001666D01*
X243054380Y-75858809D01*
X243054380Y-75620714D01*
X242149619Y-76573095D02*
X242102000Y-76620714D01*
X242054380Y-76715952D01*
X242054380Y-76954047D01*
X242102000Y-77049285D01*
X242149619Y-77096904D01*
X242244857Y-77144523D01*
X242340095Y-77144523D01*
X242482952Y-77096904D01*
X243054380Y-76525476D01*
X243054380Y-77144523D01*
X242149619Y-77525476D02*
X242102000Y-77573095D01*
X242054380Y-77668333D01*
X242054380Y-77906428D01*
X242102000Y-78001666D01*
X242149619Y-78049285D01*
X242244857Y-78096904D01*
X242340095Y-78096904D01*
X242482952Y-78049285D01*
X243054380Y-77477857D01*
X243054380Y-78096904D01*
%TO.C,D34*%
X276455380Y-94417714D02*
X275455380Y-94417714D01*
X275455380Y-94655809D01*
X275503000Y-94798666D01*
X275598238Y-94893904D01*
X275693476Y-94941523D01*
X275883952Y-94989142D01*
X276026809Y-94989142D01*
X276217285Y-94941523D01*
X276312523Y-94893904D01*
X276407761Y-94798666D01*
X276455380Y-94655809D01*
X276455380Y-94417714D01*
X275455380Y-95322476D02*
X275455380Y-95941523D01*
X275836333Y-95608190D01*
X275836333Y-95751047D01*
X275883952Y-95846285D01*
X275931571Y-95893904D01*
X276026809Y-95941523D01*
X276264904Y-95941523D01*
X276360142Y-95893904D01*
X276407761Y-95846285D01*
X276455380Y-95751047D01*
X276455380Y-95465333D01*
X276407761Y-95370095D01*
X276360142Y-95322476D01*
X275788714Y-96798666D02*
X276455380Y-96798666D01*
X275407761Y-96560571D02*
X276122047Y-96322476D01*
X276122047Y-96941523D01*
%TO.C,D11*%
X257532380Y-56570714D02*
X256532380Y-56570714D01*
X256532380Y-56808809D01*
X256580000Y-56951666D01*
X256675238Y-57046904D01*
X256770476Y-57094523D01*
X256960952Y-57142142D01*
X257103809Y-57142142D01*
X257294285Y-57094523D01*
X257389523Y-57046904D01*
X257484761Y-56951666D01*
X257532380Y-56808809D01*
X257532380Y-56570714D01*
X257532380Y-58094523D02*
X257532380Y-57523095D01*
X257532380Y-57808809D02*
X256532380Y-57808809D01*
X256675238Y-57713571D01*
X256770476Y-57618333D01*
X256818095Y-57523095D01*
X257532380Y-59046904D02*
X257532380Y-58475476D01*
X257532380Y-58761190D02*
X256532380Y-58761190D01*
X256675238Y-58665952D01*
X256770476Y-58570714D01*
X256818095Y-58475476D01*
%TO.C,D23*%
X269343380Y-75493714D02*
X268343380Y-75493714D01*
X268343380Y-75731809D01*
X268391000Y-75874666D01*
X268486238Y-75969904D01*
X268581476Y-76017523D01*
X268771952Y-76065142D01*
X268914809Y-76065142D01*
X269105285Y-76017523D01*
X269200523Y-75969904D01*
X269295761Y-75874666D01*
X269343380Y-75731809D01*
X269343380Y-75493714D01*
X268438619Y-76446095D02*
X268391000Y-76493714D01*
X268343380Y-76588952D01*
X268343380Y-76827047D01*
X268391000Y-76922285D01*
X268438619Y-76969904D01*
X268533857Y-77017523D01*
X268629095Y-77017523D01*
X268771952Y-76969904D01*
X269343380Y-76398476D01*
X269343380Y-77017523D01*
X268343380Y-77350857D02*
X268343380Y-77969904D01*
X268724333Y-77636571D01*
X268724333Y-77779428D01*
X268771952Y-77874666D01*
X268819571Y-77922285D01*
X268914809Y-77969904D01*
X269152904Y-77969904D01*
X269248142Y-77922285D01*
X269295761Y-77874666D01*
X269343380Y-77779428D01*
X269343380Y-77493714D01*
X269295761Y-77398476D01*
X269248142Y-77350857D01*
%TO.C,D35*%
X67032380Y-113467714D02*
X66032380Y-113467714D01*
X66032380Y-113705809D01*
X66080000Y-113848666D01*
X66175238Y-113943904D01*
X66270476Y-113991523D01*
X66460952Y-114039142D01*
X66603809Y-114039142D01*
X66794285Y-113991523D01*
X66889523Y-113943904D01*
X66984761Y-113848666D01*
X67032380Y-113705809D01*
X67032380Y-113467714D01*
X66032380Y-114372476D02*
X66032380Y-114991523D01*
X66413333Y-114658190D01*
X66413333Y-114801047D01*
X66460952Y-114896285D01*
X66508571Y-114943904D01*
X66603809Y-114991523D01*
X66841904Y-114991523D01*
X66937142Y-114943904D01*
X66984761Y-114896285D01*
X67032380Y-114801047D01*
X67032380Y-114515333D01*
X66984761Y-114420095D01*
X66937142Y-114372476D01*
X66032380Y-115896285D02*
X66032380Y-115420095D01*
X66508571Y-115372476D01*
X66460952Y-115420095D01*
X66413333Y-115515333D01*
X66413333Y-115753428D01*
X66460952Y-115848666D01*
X66508571Y-115896285D01*
X66603809Y-115943904D01*
X66841904Y-115943904D01*
X66937142Y-115896285D01*
X66984761Y-115848666D01*
X67032380Y-115753428D01*
X67032380Y-115515333D01*
X66984761Y-115420095D01*
X66937142Y-115372476D01*
%TO.C,D12*%
X276582380Y-56570714D02*
X275582380Y-56570714D01*
X275582380Y-56808809D01*
X275630000Y-56951666D01*
X275725238Y-57046904D01*
X275820476Y-57094523D01*
X276010952Y-57142142D01*
X276153809Y-57142142D01*
X276344285Y-57094523D01*
X276439523Y-57046904D01*
X276534761Y-56951666D01*
X276582380Y-56808809D01*
X276582380Y-56570714D01*
X276582380Y-58094523D02*
X276582380Y-57523095D01*
X276582380Y-57808809D02*
X275582380Y-57808809D01*
X275725238Y-57713571D01*
X275820476Y-57618333D01*
X275868095Y-57523095D01*
X275677619Y-58475476D02*
X275630000Y-58523095D01*
X275582380Y-58618333D01*
X275582380Y-58856428D01*
X275630000Y-58951666D01*
X275677619Y-58999285D01*
X275772857Y-59046904D01*
X275868095Y-59046904D01*
X276010952Y-58999285D01*
X276582380Y-58427857D01*
X276582380Y-59046904D01*
%TO.C,D24*%
X76430380Y-94416714D02*
X75430380Y-94416714D01*
X75430380Y-94654809D01*
X75478000Y-94797666D01*
X75573238Y-94892904D01*
X75668476Y-94940523D01*
X75858952Y-94988142D01*
X76001809Y-94988142D01*
X76192285Y-94940523D01*
X76287523Y-94892904D01*
X76382761Y-94797666D01*
X76430380Y-94654809D01*
X76430380Y-94416714D01*
X75525619Y-95369095D02*
X75478000Y-95416714D01*
X75430380Y-95511952D01*
X75430380Y-95750047D01*
X75478000Y-95845285D01*
X75525619Y-95892904D01*
X75620857Y-95940523D01*
X75716095Y-95940523D01*
X75858952Y-95892904D01*
X76430380Y-95321476D01*
X76430380Y-95940523D01*
X75763714Y-96797666D02*
X76430380Y-96797666D01*
X75382761Y-96559571D02*
X76097047Y-96321476D01*
X76097047Y-96940523D01*
%TO.C,D36*%
X86082380Y-114100714D02*
X85082380Y-114100714D01*
X85082380Y-114338809D01*
X85130000Y-114481666D01*
X85225238Y-114576904D01*
X85320476Y-114624523D01*
X85510952Y-114672142D01*
X85653809Y-114672142D01*
X85844285Y-114624523D01*
X85939523Y-114576904D01*
X86034761Y-114481666D01*
X86082380Y-114338809D01*
X86082380Y-114100714D01*
X85082380Y-115005476D02*
X85082380Y-115624523D01*
X85463333Y-115291190D01*
X85463333Y-115434047D01*
X85510952Y-115529285D01*
X85558571Y-115576904D01*
X85653809Y-115624523D01*
X85891904Y-115624523D01*
X85987142Y-115576904D01*
X86034761Y-115529285D01*
X86082380Y-115434047D01*
X86082380Y-115148333D01*
X86034761Y-115053095D01*
X85987142Y-115005476D01*
X85082380Y-116481666D02*
X85082380Y-116291190D01*
X85130000Y-116195952D01*
X85177619Y-116148333D01*
X85320476Y-116053095D01*
X85510952Y-116005476D01*
X85891904Y-116005476D01*
X85987142Y-116053095D01*
X86034761Y-116100714D01*
X86082380Y-116195952D01*
X86082380Y-116386428D01*
X86034761Y-116481666D01*
X85987142Y-116529285D01*
X85891904Y-116576904D01*
X85653809Y-116576904D01*
X85558571Y-116529285D01*
X85510952Y-116481666D01*
X85463333Y-116386428D01*
X85463333Y-116195952D01*
X85510952Y-116100714D01*
X85558571Y-116053095D01*
X85653809Y-116005476D01*
%TD*%
M02*
