%TF.GenerationSoftware,KiCad,Pcbnew,(5.1.10)-1*%
%TF.CreationDate,2021-09-28T22:37:18-06:00*%
%TF.ProjectId,MX43,4d583433-2e6b-4696-9361-645f70636258,rev?*%
%TF.SameCoordinates,Original*%
%TF.FileFunction,Profile,NP*%
%FSLAX46Y46*%
G04 Gerber Fmt 4.6, Leading zero omitted, Abs format (unit mm)*
G04 Created by KiCad (PCBNEW (5.1.10)-1) date 2021-09-28 22:37:18*
%MOMM*%
%LPD*%
G01*
G04 APERTURE LIST*
%TA.AperFunction,Profile*%
%ADD10C,0.050000*%
%TD*%
G04 APERTURE END LIST*
D10*
X46355000Y-50165000D02*
G75*
G02*
X51435000Y-45085000I5080000J0D01*
G01*
X280035000Y-45085000D02*
G75*
G02*
X285115000Y-50165000I0J-5080000D01*
G01*
X285115000Y-126365000D02*
G75*
G02*
X280035000Y-131445000I-5080000J0D01*
G01*
X51435000Y-131445000D02*
G75*
G02*
X46355000Y-126365000I0J5080000D01*
G01*
X46355000Y-50165000D02*
X46355000Y-126365000D01*
X280035000Y-45085000D02*
X51435000Y-45085000D01*
X285115000Y-126365000D02*
X285115000Y-50165000D01*
X51435000Y-131445000D02*
X280035000Y-131445000D01*
%TO.C,U39*%
X184072000Y-113290000D02*
X180672000Y-113290000D01*
X180672000Y-113290000D02*
X180672000Y-110290000D01*
X180672000Y-110290000D02*
X184072000Y-110290000D01*
X184072000Y-110290000D02*
X184072000Y-113290000D01*
%TO.C,U38*%
X136447000Y-113290000D02*
X133047000Y-113290000D01*
X133047000Y-113290000D02*
X133047000Y-110290000D01*
X133047000Y-110290000D02*
X136447000Y-110290000D01*
X136447000Y-110290000D02*
X136447000Y-113290000D01*
%TO.C,U24*%
X72185000Y-94240000D02*
X68785000Y-94240000D01*
X68785000Y-94240000D02*
X68785000Y-91240000D01*
X68785000Y-91240000D02*
X72185000Y-91240000D01*
X72185000Y-91240000D02*
X72185000Y-94240000D01*
%TO.C,U18*%
X162736000Y-72190000D02*
X162736000Y-75190000D01*
X159336000Y-72190000D02*
X162736000Y-72190000D01*
X159336000Y-75190000D02*
X159336000Y-72190000D01*
X162736000Y-75190000D02*
X159336000Y-75190000D01*
%TO.C,U13*%
X65073000Y-75190000D02*
X61673000Y-75190000D01*
X61673000Y-75190000D02*
X61673000Y-72190000D01*
X61673000Y-72190000D02*
X65073000Y-72190000D01*
X65073000Y-72190000D02*
X65073000Y-75190000D01*
%TO.C,U20*%
X200836000Y-72190000D02*
X200836000Y-75190000D01*
X197436000Y-72190000D02*
X200836000Y-72190000D01*
X197436000Y-75190000D02*
X197436000Y-72190000D01*
X200836000Y-75190000D02*
X197436000Y-75190000D01*
%TO.C,U21*%
X219886000Y-72190000D02*
X219886000Y-75190000D01*
X216486000Y-72190000D02*
X219886000Y-72190000D01*
X216486000Y-75190000D02*
X216486000Y-72190000D01*
X219886000Y-75190000D02*
X216486000Y-75190000D01*
%TO.C,U34*%
X272210000Y-91240000D02*
X272210000Y-94240000D01*
X268810000Y-91240000D02*
X272210000Y-91240000D01*
X268810000Y-94240000D02*
X268810000Y-91240000D01*
X272210000Y-94240000D02*
X268810000Y-94240000D01*
%TO.C,U43*%
X272210000Y-110290000D02*
X272210000Y-113290000D01*
X268810000Y-110290000D02*
X272210000Y-110290000D01*
X268810000Y-113290000D02*
X268810000Y-110290000D01*
X272210000Y-113290000D02*
X268810000Y-113290000D01*
%TO.C,U40*%
X215060000Y-110290000D02*
X215060000Y-113290000D01*
X211660000Y-110290000D02*
X215060000Y-110290000D01*
X211660000Y-113290000D02*
X211660000Y-110290000D01*
X215060000Y-113290000D02*
X211660000Y-113290000D01*
%TO.C,U35*%
X62660000Y-110290000D02*
X62660000Y-113290000D01*
X59260000Y-110290000D02*
X62660000Y-110290000D01*
X59260000Y-113290000D02*
X59260000Y-110290000D01*
X62660000Y-113290000D02*
X59260000Y-113290000D01*
%TO.C,U42*%
X253160000Y-113290000D02*
X249760000Y-113290000D01*
X249760000Y-113290000D02*
X249760000Y-110290000D01*
X249760000Y-110290000D02*
X253160000Y-110290000D01*
X253160000Y-110290000D02*
X253160000Y-113290000D01*
%TO.C,U23*%
X265098000Y-75190000D02*
X261698000Y-75190000D01*
X261698000Y-75190000D02*
X261698000Y-72190000D01*
X261698000Y-72190000D02*
X265098000Y-72190000D01*
X265098000Y-72190000D02*
X265098000Y-75190000D01*
%TO.C,U41*%
X234110000Y-110290000D02*
X234110000Y-113290000D01*
X230710000Y-110290000D02*
X234110000Y-110290000D01*
X230710000Y-113290000D02*
X230710000Y-110290000D01*
X234110000Y-113290000D02*
X230710000Y-113290000D01*
%TO.C,U37*%
X100760000Y-110290000D02*
X100760000Y-113290000D01*
X97360000Y-110290000D02*
X100760000Y-110290000D01*
X97360000Y-113290000D02*
X97360000Y-110290000D01*
X100760000Y-113290000D02*
X97360000Y-113290000D01*
%TO.C,U36*%
X81710000Y-110290000D02*
X81710000Y-113290000D01*
X78310000Y-110290000D02*
X81710000Y-110290000D01*
X78310000Y-113290000D02*
X78310000Y-110290000D01*
X81710000Y-113290000D02*
X78310000Y-113290000D01*
%TO.C,U33*%
X253160000Y-91240000D02*
X253160000Y-94240000D01*
X249760000Y-91240000D02*
X253160000Y-91240000D01*
X249760000Y-94240000D02*
X249760000Y-91240000D01*
X253160000Y-94240000D02*
X249760000Y-94240000D01*
%TO.C,U32*%
X234110000Y-91240000D02*
X234110000Y-94240000D01*
X230710000Y-91240000D02*
X234110000Y-91240000D01*
X230710000Y-94240000D02*
X230710000Y-91240000D01*
X234110000Y-94240000D02*
X230710000Y-94240000D01*
%TO.C,U31*%
X215060000Y-91240000D02*
X215060000Y-94240000D01*
X211660000Y-91240000D02*
X215060000Y-91240000D01*
X211660000Y-94240000D02*
X211660000Y-91240000D01*
X215060000Y-94240000D02*
X211660000Y-94240000D01*
%TO.C,U30*%
X196010000Y-91240000D02*
X196010000Y-94240000D01*
X192610000Y-91240000D02*
X196010000Y-91240000D01*
X192610000Y-94240000D02*
X192610000Y-91240000D01*
X196010000Y-94240000D02*
X192610000Y-94240000D01*
%TO.C,U29*%
X176960000Y-91240000D02*
X176960000Y-94240000D01*
X173560000Y-91240000D02*
X176960000Y-91240000D01*
X173560000Y-94240000D02*
X173560000Y-91240000D01*
X176960000Y-94240000D02*
X173560000Y-94240000D01*
%TO.C,U28*%
X157910000Y-91240000D02*
X157910000Y-94240000D01*
X154510000Y-91240000D02*
X157910000Y-91240000D01*
X154510000Y-94240000D02*
X154510000Y-91240000D01*
X157910000Y-94240000D02*
X154510000Y-94240000D01*
%TO.C,U27*%
X138860000Y-91240000D02*
X138860000Y-94240000D01*
X135460000Y-91240000D02*
X138860000Y-91240000D01*
X135460000Y-94240000D02*
X135460000Y-91240000D01*
X138860000Y-94240000D02*
X135460000Y-94240000D01*
%TO.C,U26*%
X119810000Y-91240000D02*
X119810000Y-94240000D01*
X116410000Y-91240000D02*
X119810000Y-91240000D01*
X116410000Y-94240000D02*
X116410000Y-91240000D01*
X119810000Y-94240000D02*
X116410000Y-94240000D01*
%TO.C,U25*%
X100760000Y-91240000D02*
X100760000Y-94240000D01*
X97360000Y-91240000D02*
X100760000Y-91240000D01*
X97360000Y-94240000D02*
X97360000Y-91240000D01*
X100760000Y-94240000D02*
X97360000Y-94240000D01*
%TO.C,U22*%
X238936000Y-72190000D02*
X238936000Y-75190000D01*
X235536000Y-72190000D02*
X238936000Y-72190000D01*
X235536000Y-75190000D02*
X235536000Y-72190000D01*
X238936000Y-75190000D02*
X235536000Y-75190000D01*
%TO.C,U19*%
X181786000Y-72190000D02*
X181786000Y-75190000D01*
X178386000Y-72190000D02*
X181786000Y-72190000D01*
X178386000Y-75190000D02*
X178386000Y-72190000D01*
X181786000Y-75190000D02*
X178386000Y-75190000D01*
%TO.C,U17*%
X143686000Y-72190000D02*
X143686000Y-75190000D01*
X140286000Y-72190000D02*
X143686000Y-72190000D01*
X140286000Y-75190000D02*
X140286000Y-72190000D01*
X143686000Y-75190000D02*
X140286000Y-75190000D01*
%TO.C,U16*%
X124636000Y-72190000D02*
X124636000Y-75190000D01*
X121236000Y-72190000D02*
X124636000Y-72190000D01*
X121236000Y-75190000D02*
X121236000Y-72190000D01*
X124636000Y-75190000D02*
X121236000Y-75190000D01*
%TO.C,U15*%
X105586000Y-72190000D02*
X105586000Y-75190000D01*
X102186000Y-72190000D02*
X105586000Y-72190000D01*
X102186000Y-75190000D02*
X102186000Y-72190000D01*
X105586000Y-75190000D02*
X102186000Y-75190000D01*
%TO.C,U14*%
X86536000Y-72190000D02*
X86536000Y-75190000D01*
X83136000Y-72190000D02*
X86536000Y-72190000D01*
X83136000Y-75190000D02*
X83136000Y-72190000D01*
X86536000Y-75190000D02*
X83136000Y-75190000D01*
%TO.C,U12*%
X272210000Y-53140000D02*
X272210000Y-56140000D01*
X268810000Y-53140000D02*
X272210000Y-53140000D01*
X268810000Y-56140000D02*
X268810000Y-53140000D01*
X272210000Y-56140000D02*
X268810000Y-56140000D01*
%TO.C,U11*%
X253160000Y-53140000D02*
X253160000Y-56140000D01*
X249760000Y-53140000D02*
X253160000Y-53140000D01*
X249760000Y-56140000D02*
X249760000Y-53140000D01*
X253160000Y-56140000D02*
X249760000Y-56140000D01*
%TO.C,U10*%
X234110000Y-53140000D02*
X234110000Y-56140000D01*
X230710000Y-53140000D02*
X234110000Y-53140000D01*
X230710000Y-56140000D02*
X230710000Y-53140000D01*
X234110000Y-56140000D02*
X230710000Y-56140000D01*
%TO.C,U9*%
X215060000Y-53140000D02*
X215060000Y-56140000D01*
X211660000Y-53140000D02*
X215060000Y-53140000D01*
X211660000Y-56140000D02*
X211660000Y-53140000D01*
X215060000Y-56140000D02*
X211660000Y-56140000D01*
%TO.C,U8*%
X196010000Y-53140000D02*
X196010000Y-56140000D01*
X192610000Y-53140000D02*
X196010000Y-53140000D01*
X192610000Y-56140000D02*
X192610000Y-53140000D01*
X196010000Y-56140000D02*
X192610000Y-56140000D01*
%TO.C,U7*%
X176960000Y-53140000D02*
X176960000Y-56140000D01*
X173560000Y-53140000D02*
X176960000Y-53140000D01*
X173560000Y-56140000D02*
X173560000Y-53140000D01*
X176960000Y-56140000D02*
X173560000Y-56140000D01*
%TO.C,U6*%
X157910000Y-53140000D02*
X157910000Y-56140000D01*
X154510000Y-53140000D02*
X157910000Y-53140000D01*
X154510000Y-56140000D02*
X154510000Y-53140000D01*
X157910000Y-56140000D02*
X154510000Y-56140000D01*
%TO.C,U5*%
X138860000Y-53140000D02*
X138860000Y-56140000D01*
X135460000Y-53140000D02*
X138860000Y-53140000D01*
X135460000Y-56140000D02*
X135460000Y-53140000D01*
X138860000Y-56140000D02*
X135460000Y-56140000D01*
%TO.C,U4*%
X119810000Y-53140000D02*
X119810000Y-56140000D01*
X116410000Y-53140000D02*
X119810000Y-53140000D01*
X116410000Y-56140000D02*
X116410000Y-53140000D01*
X119810000Y-56140000D02*
X116410000Y-56140000D01*
%TO.C,U3*%
X100760000Y-53140000D02*
X100760000Y-56140000D01*
X97360000Y-53140000D02*
X100760000Y-53140000D01*
X97360000Y-56140000D02*
X97360000Y-53140000D01*
X100760000Y-56140000D02*
X97360000Y-56140000D01*
%TO.C,U2*%
X81710000Y-53140000D02*
X81710000Y-56140000D01*
X78310000Y-53140000D02*
X81710000Y-53140000D01*
X78310000Y-56140000D02*
X78310000Y-53140000D01*
X81710000Y-56140000D02*
X78310000Y-56140000D01*
%TO.C,U1*%
X62660000Y-53140000D02*
X62660000Y-56140000D01*
X59260000Y-53140000D02*
X62660000Y-53140000D01*
X59260000Y-56140000D02*
X59260000Y-53140000D01*
X62660000Y-56140000D02*
X59260000Y-56140000D01*
%TD*%
M02*
