M48
; DRILL file {KiCad (5.1.10)-1} date 09/02/21 23:13:27
; FORMAT={-:-/ absolute / inch / decimal}
; #@! TF.CreationDate,2021-09-02T23:13:27-06:00
; #@! TF.GenerationSoftware,Kicad,Pcbnew,(5.1.10)-1
; #@! TF.FileFunction,NonPlated,1,2,NPTH
FMAT,2
INCH
T1C0.0689
T2C0.0866
T3C0.1181
T4C0.1201
T5C0.1575
%
G90
G05
T1
X2.2Y-2.35
X2.2Y-4.6
X2.295Y-3.1
X2.6Y-2.35
X2.6Y-4.6
X2.695Y-3.1
X2.95Y-2.35
X2.95Y-4.6
X3.14Y-3.1
X3.35Y-2.35
X3.35Y-4.6
X3.54Y-3.1
X3.7Y-2.35
X3.7Y-3.85
X3.7Y-4.6
X3.89Y-3.1
X4.1Y-2.35
X4.1Y-3.85
X4.1Y-4.6
X4.29Y-3.1
X4.45Y-2.35
X4.45Y-3.85
X4.64Y-3.1
X4.85Y-2.35
X4.85Y-3.85
X5.04Y-3.1
X5.2Y-2.35
X5.2Y-3.85
X5.39Y-3.1
X5.6Y-2.35
X5.6Y-3.85
X5.79Y-3.1
X5.95Y-2.35
X5.95Y-3.85
X6.14Y-3.1
X6.35Y-2.35
X6.35Y-3.85
X6.54Y-3.1
X6.7Y-2.35
X6.7Y-3.85
X6.89Y-3.1
X7.1Y-2.35
X7.1Y-3.85
X7.29Y-3.1
X7.45Y-2.35
X7.45Y-3.85
X7.64Y-3.1
X7.85Y-2.35
X7.85Y-3.85
X8.04Y-3.1
X8.2Y-2.35
X8.2Y-3.85
X8.2Y-4.6
X8.39Y-3.1
X8.6Y-2.35
X8.6Y-3.85
X8.6Y-4.6
X8.79Y-3.1
X8.95Y-2.35
X8.95Y-3.85
X8.95Y-4.6
X9.14Y-3.1
X9.35Y-2.35
X9.35Y-3.85
X9.35Y-4.6
X9.54Y-3.1
X9.7Y-2.35
X9.7Y-3.85
X9.7Y-4.6
X10.1Y-2.35
X10.1Y-3.85
X10.1Y-4.6
X10.17Y-3.1
X10.45Y-2.35
X10.45Y-3.85
X10.45Y-4.6
X10.57Y-3.1
X10.85Y-2.35
X10.85Y-3.85
X10.85Y-4.6
T2
X2.025Y-1.975
X2.025Y-3.475
X2.025Y-4.975
X3.525Y-1.975
X3.525Y-4.975
X5.025Y-1.975
X5.025Y-4.975
X6.525Y-1.975
X6.525Y-4.975
X8.025Y-1.975
X8.025Y-4.975
X9.525Y-1.975
X9.525Y-4.975
X11.025Y-1.975
X11.025Y-3.475
X11.025Y-4.975
T3
X2.3Y-2.55
X2.3Y-4.8
X2.395Y-3.3
X2.55Y-2.45
X2.55Y-4.7
X2.645Y-3.2
X2.675Y-4.05
X2.925Y-3.95
X3.05Y-2.55
X3.05Y-4.8
X3.24Y-3.3
X3.3Y-2.45
X3.3Y-4.7
X3.49Y-3.2
X3.8Y-2.55
X3.8Y-4.05
X3.8Y-4.8
X3.99Y-3.3
X4.05Y-2.45
X4.05Y-3.95
X4.05Y-4.7
X4.24Y-3.2
X4.55Y-2.55
X4.55Y-4.05
X4.74Y-3.3
X4.8Y-2.45
X4.8Y-3.95
X4.99Y-3.2
X5.205Y-4.8
X5.3Y-2.55
X5.3Y-4.05
X5.455Y-4.7
X5.49Y-3.3
X5.55Y-2.45
X5.55Y-3.95
X5.74Y-3.2
X6.05Y-2.55
X6.05Y-4.05
X6.24Y-3.3
X6.3Y-2.45
X6.3Y-3.95
X6.49Y-3.2
X6.8Y-2.55
X6.8Y-4.05
X6.99Y-3.3
X7.05Y-2.45
X7.05Y-3.95
X7.08Y-4.8
X7.24Y-3.2
X7.33Y-4.7
X7.55Y-2.55
X7.55Y-4.05
X7.74Y-3.3
X7.8Y-2.45
X7.8Y-3.95
X7.99Y-3.2
X8.3Y-2.55
X8.3Y-4.05
X8.3Y-4.8
X8.49Y-3.3
X8.55Y-2.45
X8.55Y-3.95
X8.55Y-4.7
X8.74Y-3.2
X9.05Y-2.55
X9.05Y-4.05
X9.05Y-4.8
X9.24Y-3.3
X9.3Y-2.45
X9.3Y-3.95
X9.3Y-4.7
X9.49Y-3.2
X9.8Y-2.55
X9.8Y-4.05
X9.8Y-4.8
X10.05Y-2.45
X10.05Y-3.95
X10.05Y-4.7
X10.27Y-3.3
X10.52Y-3.2
X10.55Y-2.55
X10.55Y-4.05
X10.55Y-4.8
X10.8Y-2.45
X10.8Y-3.95
X10.8Y-4.7
T4
X2.305Y-3.5744
X3.245Y-3.5744
X4.835Y-4.3244
X5.775Y-4.3244
X6.71Y-4.3244
X7.65Y-4.3244
T5
X2.305Y-4.1744
X2.4Y-2.35
X2.4Y-4.6
X2.495Y-3.1
X2.775Y-3.85
X3.15Y-2.35
X3.15Y-4.6
X3.245Y-4.1744
X3.34Y-3.1
X3.9Y-2.35
X3.9Y-3.85
X3.9Y-4.6
X4.09Y-3.1
X4.65Y-2.35
X4.65Y-3.85
X4.835Y-4.9244
X4.84Y-3.1
X5.305Y-4.6
X5.4Y-2.35
X5.4Y-3.85
X5.59Y-3.1
X5.775Y-4.9244
X6.15Y-2.35
X6.15Y-3.85
X6.34Y-3.1
X6.71Y-4.9244
X6.9Y-2.35
X6.9Y-3.85
X7.09Y-3.1
X7.18Y-4.6
X7.65Y-2.35
X7.65Y-3.85
X7.65Y-4.9244
X7.84Y-3.1
X8.4Y-2.35
X8.4Y-3.85
X8.4Y-4.6
X8.59Y-3.1
X9.15Y-2.35
X9.15Y-3.85
X9.15Y-4.6
X9.34Y-3.1
X9.9Y-2.35
X9.9Y-3.85
X9.9Y-4.6
X10.37Y-3.1
X10.65Y-2.35
X10.65Y-3.85
X10.65Y-4.6
T0
M30
